SplineFontDB: 3.0
FontName: Aercom
FullName: Aercom
FamilyName: Aercom
Weight: Regular
Copyright: Copyright (c) 2011 by vernon adams. All rights reserved.
UComments: "autokern +AD0A 280 / 22. autospace +AD0A 140 / little" 
FONDName: Aercom
ItalicAngle: 0
UnderlinePosition: -205
UnderlineWidth: 102
Ascent: 1638
Descent: 410
UFOAscent: 1504
UFODescent: -391
LayerCount: 2
Layer: 0 0 "Back"  1
Layer: 1 0 "Fore"  0
NeedsXUIDChange: 1
OS2Version: 0
OS2_WeightWidthSlopeOnly: 0
OS2_UseTypoMetrics: 0
CreationTime: 1330081192
ModificationTime: 1330088305
PfmFamily: 0
TTFWeight: 400
TTFWidth: 5
LineGap: 0
VLineGap: 0
Panose: 0 0 0 0 0 0 0 0 0 0
OS2TypoAscent: 1492
OS2TypoAOffset: 0
OS2TypoDescent: -391
OS2TypoDOffset: 0
OS2TypoLinegap: 81
OS2WinAscent: 1521
OS2WinAOffset: 0
OS2WinDescent: 0
OS2WinDOffset: 0
HheadAscent: 0
HheadAOffset: 1
HheadDescent: 0
HheadDOffset: 1
OS2SubXSize: 1434
OS2SubYSize: 1331
OS2SubXOff: 0
OS2SubYOff: 287
OS2SupXSize: 1434
OS2SupYSize: 1331
OS2SupXOff: 0
OS2SupYOff: 977
OS2StrikeYSize: 102
OS2StrikeYPos: 512
OS2Vendor: 'newt'
Lookup: 258 0 0 "'kern' Horizontal Kerning in Latin lookup 0"  {"'kern' Horizontal Kerning in Latin lookup 0 subtable"  } ['kern' ('latn' <'dflt' > ) ]
DEI: 91125
LangName: 1033 "" "" "" "" "" "" "" "Aercom is a trademark of vernon adams." "vernon adams" "" "Copyright (c) 2011 by vernon adams. All rights reserved." "" "newtypography.co.uk" "" "" "" "" "" "Aercom" 
PickledData: "(dp1
S'com.typemytype.robofont.compileSettings.autohint'
p2
I0
sS'com.typemytype.robofont.compileSettings.decompose'
p3
I0
sS'com.typemytype.robofont.segmentType'
p4
S'curve'
p5
sS'com.typemytype.robofont.foreground.layerStrokeColor'
p6
(F0.5
F0
F0.5
F0.69999999999999996
tp7
sS'com.typemytype.robofont.compileSettings.releaseMode'
p8
I0
sS'com.typemytype.robofont.compileSettings.checkOutlines'
p9
I0
sS'com.typemytype.robofont.compileSettings.path'
p10
S'/Users/vern/GitHub/AercomFont/Aercom2.ttf'
p11
sS'com.typemytype.robofont.back.layerStrokeColor'
p12

StartChar: A
Encoding: 65 65 0
Width: 1278
VWidth: 0
Flags: HW
LayerCount: 2
Fore
SplineSet
56 0 m 1
 542 1464 l 1
 734 1464 l 1
 1222 0 l 1
 1072 0 l 1
 938 399 l 1
 330 399 l 1
 202 0 l 1
 56 0 l 1
633 1362 m 1
 605 1274 567 1148 533 1040 c 2
 364 508 l 1
 904 508 l 1
 734 1041 l 2
 700 1147 660 1274 633 1362 c 1
EndSplineSet
EndChar

StartChar: AE
Encoding: 198 198 1
Width: 2272
VWidth: 0
Flags: W
LayerCount: 2
Fore
SplineSet
576 508 m 1
 1118 508 l 1
 1118 1364 l 1
 1071 1298 1023 1233 976 1167 c 1
 843 948 709 728 576 508 c 1
107 0 m 1
 1014 1464 l 1
 2149 1464 l 1
 2149 1352 l 1
 1262 1352 l 1
 1262 838 l 1
 1987 838 l 1
 1987 800 1986 761 1986 723 c 1
 1262 723 l 1
 1262 113 l 1
 2159 113 l 1
 2159 0 l 1
 1115 0 l 1
 1115 399 l 1
 515 399 l 1
 268 0 l 1
 107 0 l 1
1136 1464 m 0
EndSplineSet
EndChar

StartChar: B
Encoding: 66 66 8
Width: 1284
VWidth: 0
Flags: W
LayerCount: 2
Fore
SplineSet
586 1357 m 2
 285 1357 l 1
 285 837 l 1
 513 837 l 2
 867 837 1023 834 1023 1100 c 0
 1023 1348 821 1357 586 1357 c 2
286 730 m 1
 286 107 l 1
 600 107 l 2
 821 107 1059 123 1059 417 c 0
 1059 742 792 730 526 730 c 2
 286 730 l 1
140 0 m 1
 140 1464 l 1
 569 1464 l 2
 866 1464 1162 1427 1162 1111 c 0
 1162 957 1090 832 908 788 c 1
 1123 745 1206 604 1206 413 c 0
 1206 85 991 0 533 0 c 2
 140 0 l 1
EndSplineSet
EndChar

StartChar: C
Encoding: 67 67 9
Width: 1357
VWidth: 0
Flags: HW
PickledData: "(dp1
S'com.typemytype.robofont.layerData'
p2
(dp3
s."
LayerCount: 2
Fore
SplineSet
736 1491 m 4
 994 1491 1195 1365 1267 1102 c 5
 1133 1071 l 5
 1087 1248 962 1374 731 1374 c 4
 386 1374 265 1135 265 738 c 4
 265 311 369 93 734 93 c 4
 957 93 1085 205 1147 377 c 5
 1272 338 l 5
 1190 90 982 -25 726 -25 c 4
 321 -25 112 195 112 738 c 4
 112 1269 353 1491 736 1491 c 4
EndSplineSet
EndChar

StartChar: D
Encoding: 68 68 13
Width: 1399
VWidth: 0
Flags: HW
PickledData: "(dp1
S'com.typemytype.robofont.layerData'
p2
(dp3
s."
LayerCount: 2
Fore
SplineSet
653 1350 m 2
 294 1350 l 1
 294 114 l 1
 597 114 l 2
 1008 114 1144 289 1144 737 c 0
 1144 1130 1037 1350 653 1350 c 2
148 1464 m 1
 652 1464 l 2
 1064 1464 1287 1280 1287 738 c 0
 1287 203 1083 0 645 0 c 2
 148 0 l 1
 148 1464 l 1
706 1464 m 0
EndSplineSet
EndChar

StartChar: E
Encoding: 69 69 16
Width: 1178
VWidth: 0
Flags: HW
PickledData: "(dp1
S'com.typemytype.robofont.layerData'
p2
(dp3
s."
LayerCount: 2
Fore
SplineSet
1128 0 m 1
 148 0 l 1
 148 1464 l 1
 1117 1464 l 1
 1117 1352 l 1
 294 1352 l 1
 294 838 l 1
 1010 838 l 1
 1010 723 l 1
 294 723 l 1
 294 113 l 1
 1128 113 l 1
 1128 0 l 1
EndSplineSet
EndChar

StartChar: Eth
Encoding: 208 208 21
Width: 1391
VWidth: 0
Flags: W
LayerCount: 2
Fore
SplineSet
0 702 m 1
 0 788 l 1
 140 788 l 1
 140 1464 l 1
 644 1464 l 2
 1056 1464 1270 1280 1270 738 c 0
 1270 203 1075 0 637 0 c 2
 140 0 l 1
 140 702 l 1
 0 702 l 1
645 1350 m 2
 286 1350 l 1
 286 788 l 1
 454 788 l 1
 454 702 l 1
 286 702 l 1
 286 114 l 1
 589 114 l 2
 1000 114 1127 289 1127 737 c 0
 1127 1130 1029 1350 645 1350 c 2
EndSplineSet
EndChar

StartChar: F
Encoding: 70 70 22
Width: 1139
VWidth: 0
Flags: W
PickledData: "(dp1
S'com.typemytype.robofont.layerData'
p2
(dp3
s."
LayerCount: 2
Fore
SplineSet
1117 1352 m 1
 294 1352 l 1
 294 830 l 1
 1009 830 l 1
 1009 716 l 1
 294 716 l 1
 294 0 l 1
 148 0 l 1
 148 1464 l 1
 1117 1464 l 1
 1117 1352 l 1
EndSplineSet
EndChar

StartChar: G
Encoding: 71 71 23
Width: 1383
VWidth: 0
Flags: HW
LayerCount: 2
Fore
SplineSet
740 1491 m 0
 963 1491 1156 1381 1241 1150 c 1
 1119 1096 l 1
 1051 1280 920 1374 739 1374 c 0
 405 1374 272 1149 272 721 c 0
 272 319 386 93 724 93 c 0
 890 93 1109 203 1109 444 c 2
 1109 664 l 1
 737 664 l 1
 737 789 l 1
 1253 789 l 1
 1253 581 l 2
 1253 428 1243 0 1243 0 c 1
 1150 0 l 1
 1118 191 l 1
 1045 68 890 -24 706 -24 c 0
 365 -24 119 165 119 722 c 0
 119 1271 365 1491 740 1491 c 0
EndSplineSet
EndChar

StartChar: H
Encoding: 72 72 24
Width: 1457
VWidth: 0
Flags: HW
LayerCount: 2
Fore
SplineSet
1164 836 m 1
 1164 1464 l 1
 1309 1464 l 1
 1309 0 l 1
 1164 0 l 1
 1164 720 l 1
 294 720 l 1
 294 0 l 1
 148 0 l 1
 148 1464 l 1
 294 1464 l 1
 294 836 l 1
 1164 836 l 1
EndSplineSet
EndChar

StartChar: I
Encoding: 73 73 25
Width: 456
VWidth: 0
Flags: HW
LayerCount: 2
Fore
SplineSet
301 0 m 5
 155 0 l 5
 155 1464 l 5
 301 1464 l 5
 301 0 l 5
EndSplineSet
EndChar

StartChar: J
Encoding: 74 74 32
Width: 1043
VWidth: 0
Flags: HW
LayerCount: 2
Fore
SplineSet
106 334 m 1
 236 369 l 1
 274 198 340 93 502 93 c 1
 742 95 758 306 758 541 c 2
 758 1464 l 1
 903 1464 l 1
 903 544 l 2
 903 166 803 -25 490 -25 c 0
 264 -25 149 117 106 334 c 1
EndSplineSet
EndChar

StartChar: K
Encoding: 75 75 34
Width: 1354
VWidth: 0
Flags: HW
PickledData: "(dp1
S'com.typemytype.robofont.layerData'
p2
(dp3
s."
LayerCount: 2
Fore
SplineSet
1180 1466 m 1
 665 926 l 1
 1244 0 l 1
 1077 0 l 1
 562 828 l 1
 294 553 l 1
 294 0 l 1
 148 0 l 1
 148 1466 l 1
 294 1466 l 1
 294 726 l 1
 1003 1466 l 1
 1180 1466 l 1
EndSplineSet
EndChar

StartChar: L
Encoding: 76 76 35
Width: 1063
VWidth: 0
Flags: HW
PickledData: "(dp1
S'com.typemytype.robofont.layerData'
p2
(dp3
s."
LayerCount: 2
Fore
SplineSet
1041 0 m 1
 148 0 l 1
 148 1464 l 1
 294 1464 l 1
 294 113 l 1
 1041 113 l 1
 1041 0 l 1
EndSplineSet
EndChar

StartChar: Lslash
Encoding: 264 321 37
Width: 1055
VWidth: 0
Flags: W
LayerCount: 2
Fore
SplineSet
-1 658 m 1
 -1 784 l 1
 140 847 l 1
 140 1464 l 1
 286 1464 l 1
 286 913 l 1
 532 1024 l 1
 532 898 l 1
 286 787 l 1
 286 113 l 1
 1033 113 l 1
 1033 0 l 1
 140 0 l 1
 140 721 l 1
 -1 658 l 1
EndSplineSet
EndChar

StartChar: M
Encoding: 77 77 38
Width: 1645
VWidth: 0
Flags: W
PickledData: "(dp1
S'com.typemytype.robofont.layerData'
p2
(dp3
s."
LayerCount: 2
Fore
SplineSet
148 0 m 1
 148 1463 l 1
 359 1463 l 1
 826 405 l 1
 1306 1462 l 1
 1497 1462 l 1
 1497 0 l 1
 1363 0 l 1
 1363 1275 l 1
 888 250 l 1
 753 250 l 1
 287 1281 l 1
 287 0 l 1
 148 0 l 1
EndSplineSet
EndChar

StartChar: N
Encoding: 78 78 39
Width: 1491
VWidth: 0
Flags: HW
PickledData: "(dp1
S'com.typemytype.robofont.layerData'
p2
(dp3
s."
LayerCount: 2
Fore
SplineSet
148 0 m 1
 148 1464 l 1
 311 1464 l 1
 1214 221 l 1
 1214 614 l 1
 1214 1464 l 1
 1343 1464 l 1
 1343 0 l 1
 1211 0 l 1
 279 1290 l 1
 279 1175 281 1009 281 875 c 2
 281 0 l 1
 148 0 l 1
EndSplineSet
EndChar

StartChar: O
Encoding: 79 79 42
Width: 1445
VWidth: 0
Flags: HW
LayerCount: 2
Fore
SplineSet
721 1491 m 0
 1101 1491 1333 1281 1333 741 c 0
 1333 193 1111 -25 720 -25 c 0
 337 -25 112 186 112 740 c 0
 112 1282 342 1491 721 1491 c 0
720 1374 m 0
 368 1374 265 1130 265 741 c 0
 265 302 383 93 721 93 c 0
 1060 93 1178 298 1178 740 c 0
 1178 1130 1074 1374 720 1374 c 0
EndSplineSet
EndChar

StartChar: OE
Encoding: 266 338 43
Width: 2279
VWidth: 0
Flags: HW
LayerCount: 2
Fore
SplineSet
792 1370 m 1
 422.567557631 1370 310 1128.01315919 310 738 c 0
 310 302 429 96 758 96 c 0
 985 96 1109 196 1164 403 c 1
 1181 499 1188 611 1188 738 c 0
 1188 1102 1115 1350 792 1370 c 1
795 1474 m 0
 954 1474 1085 1405 1166 1263 c 1
 1173 1330 1181 1398 1188 1464 c 1
 2155 1464 l 1
 2155 1352 l 1
 1335 1352 l 1
 1335 838 l 1
 2041 838 l 1
 2041 723 l 1
 1335 723 l 1
 1335 113 l 1
 2166 113 l 1
 2166 0 l 1
 1337 0 l 2
 1285 0 1235 -1 1185 -1 c 1
 1175 62 1166 126 1161 198 c 1
 1073 36 931 -21 746 -21 c 1
 370 -14 157 194 157 739 c 0
 157 1299.06136199 387.181821622 1474 795 1474 c 0
EndSplineSet
EndChar

StartChar: Oslash
Encoding: 216 216 48
Width: 1463
VWidth: 0
Flags: HW
LayerCount: 2
Fore
SplineSet
320 -204 m 1
 235 -160 l 1
 1126 1658 l 1
 1210 1614 l 1
 320 -204 l 1
732 1464 m 0
EndSplineSet
Refer: 42 79 N 1 0 0 1 0 0 2
EndChar

StartChar: P
Encoding: 80 80 50
Width: 1254
VWidth: 0
Flags: HW
PickledData: "(dp1
S'com.typemytype.robofont.layerData'
p2
(dp3
s."
LayerCount: 2
Fore
SplineSet
148 0 m 1
 148 1464 l 1
 579 1464 l 2
 1055 1464 1231 1360 1231 1063 c 0
 1231 724 1032 635 520 635 c 2
 298 635 l 1
 298 0 l 1
 148 0 l 1
304 1350 m 1
 304 748 l 1
 576 748 l 6
 939 749.003267974 1083 807.192810458 1083 1055 c 0
 1083 1304 939 1350 556 1350 c 2
 304 1350 l 1
EndSplineSet
EndChar

StartChar: Q
Encoding: 81 81 51
Width: 1493
VWidth: 0
Flags: HW
PickledData: "(dp1
S'com.typemytype.robofont.layerData'
p2
(dp3
s."
LayerCount: 2
Fore
SplineSet
1305 -295 m 1
 1014 30 l 1
 1014.14257812 30.16015625 l 1
 931.12835912 -7.48621450873 832.649682167 -25 720 -25 c 0
 337 -25 112 186 112 740 c 0
 112 1282 342 1491 721 1491 c 0
 1101 1491 1333 1281 1333 741 c 0
 1333 419.08240499 1256.39073662 211.043444738 1113.91626769 94.1786951284 c 1
 1392 -213 l 1
 1305 -295 l 1
720 1374 m 0
 368 1374 265 1130 265 741 c 0
 265 302 383 93 721 93 c 0
 1060 93 1178 298 1178 740 c 0
 1178 1130 1074 1374 720 1374 c 0
EndSplineSet
EndChar

StartChar: R
Encoding: 82 82 52
Width: 1328
VWidth: 0
Flags: HW
PickledData: "(dp1
S'com.typemytype.robofont.layerData'
p2
(dp3
s."
LayerCount: 2
Fore
SplineSet
1234 1075 m 0
 1234 875.952380952 1122.57585139 752.322751323 907 695 c 1
 1247 0 l 1
 1091 0 l 1
 759 673 l 1
 298 673 l 1
 298 0 l 1
 148 0 l 1
 148 1463 l 1
 653 1464 l 2
 1040 1464 1234 1337 1234 1075 c 0
304 1356 m 1
 304 786 l 1
 638 786 l 2
 852 786 1078 816 1078 1070 c 0
 1078 1331 838 1356 637 1356 c 2
 304 1356 l 1
EndSplineSet
EndChar

StartChar: S
Encoding: 83 83 56
Width: 1232
VWidth: 0
Flags: HW
LayerCount: 2
Fore
SplineSet
618 1482 m 0
 850 1482 1007 1404 1125 1224 c 1
 1017 1144 l 1
 937 1286 797 1364 639 1364 c 0
 446 1364 284 1298 284 1128 c 0
 284 931 540 895 713 829 c 0
 982 726 1158 646 1158 393 c 0
 1158 126 941 -25 615 -25 c 0
 390 -25 101 69 45 373 c 1
 168 426 l 1
 228 205 377 101 624 101 c 0
 803 101 1005 167 1005 388 c 0
 1005 584 849 633 565 731 c 0
 355 804 131 877 131 1116 c 0
 131 1369 372 1482 618 1482 c 0
EndSplineSet
EndChar

StartChar: T
Encoding: 84 84 57
Width: 1163
VWidth: 0
Flags: HW
LayerCount: 2
Fore
SplineSet
31 1352 m 1
 31 1465 l 1
 1132 1465 l 1
 1132 1352 l 1
 658 1352 l 1
 658 0 l 1
 505 0 l 1
 505 1352 l 1
 31 1352 l 1
EndSplineSet
EndChar

StartChar: Thorn
Encoding: 222 222 58
Width: 1261
VWidth: 0
Flags: W
LayerCount: 2
Fore
SplineSet
140 0 m 1
 140 1464 l 1
 296 1464 l 1
 296 1199 l 1
 561 1199 l 2
 1030 1199 1203 1122 1203 833 c 0
 1203 502 1007 437 502 437 c 2
 290 437 l 1
 290 0 l 1
 140 0 l 1
296 1085 m 1
 296 551 l 1
 558 551 l 1
 914 552 1055 586 1055 825 c 0
 1055 1065 914 1085 538 1085 c 2
 296 1085 l 1
EndSplineSet
EndChar

StartChar: U
Encoding: 85 85 59
Width: 1346
VWidth: 0
Flags: HW
LayerCount: 2
Fore
SplineSet
123 574 m 2
 123 1464 l 1
 283 1464 l 1
 283 598 l 2
 283 306 348 98 676 98 c 0
 1002 98 1066 306 1066 598 c 2
 1066 1464 l 1
 1223 1464 l 1
 1223 581 l 2
 1223 161 1046 -25 670 -25 c 0
 308 -25 123 152 123 574 c 2
EndSplineSet
EndChar

StartChar: V
Encoding: 86 86 66
Width: 1225
VWidth: 0
Flags: W
LayerCount: 2
Fore
SplineSet
533 0 m 1
 42 1464 l 1
 197 1464 l 1
 485 598 l 2
 527 471 570 344 611 218 c 1
 653 345 698 471 741 598 c 2
 1034 1464 l 1
 1182 1464 l 1
 671 0 l 1
 533 0 l 1
EndSplineSet
EndChar

StartChar: W
Encoding: 87 87 67
Width: 1859
VWidth: 0
Flags: HW
LayerCount: 2
Fore
SplineSet
457 0 m 1
 42 1462 l 1
 194 1462 l 1
 440 576 476 394 520 234 c 1
 568 395 626 577 895 1462 c 1
 999 1462 l 1
 1110 1054 1236 626 1346 217 c 1
 1456 619 1562 1054 1676 1461 c 1
 1815 1462 l 1
 1400 0 l 1
 1274 0 l 1
 1006 942 969 1069 937 1187 c 1
 905 1080 870 974 570 0 c 1
 457 0 l 1
EndSplineSet
EndChar

StartChar: X
Encoding: 88 88 68
Width: 1306
VWidth: 0
Flags: W
LayerCount: 2
Fore
SplineSet
656 889 m 1
 1059 1464 l 1
 1225 1464 l 1
 736 767 l 1
 1269 0 l 1
 1096 0 l 1
 650 641 l 1
 203 0 l 1
 36 0 l 1
 570 763 l 1
 81 1464 l 1
 256 1464 l 1
 656 889 l 1
EndSplineSet
EndChar

StartChar: Y
Encoding: 89 89 69
Width: 1222
VWidth: 0
Flags: HW
LayerCount: 2
Fore
SplineSet
538 549 m 1
 26 1464 l 1
 184 1464 l 1
 612 682 l 1
 1039 1464 l 1
 1196 1464 l 1
 684 548 l 1
 684 0 l 1
 538 0 l 1
 538 549 l 1
EndSplineSet
EndChar

StartChar: Z
Encoding: 90 90 71
Width: 1234
VWidth: 0
Flags: HW
LayerCount: 2
Fore
SplineSet
156 1356 m 1
 156 1464 l 1
 1184 1464 l 1
 1184 1383 l 1
 254 107 l 1
 1189 107 l 1
 1182 0 l 1
 73 0 l 1
 73 98 l 1
 993 1356 l 1
 156 1356 l 1
EndSplineSet
EndChar

StartChar: a
Encoding: 97 97 72
Width: 1009
VWidth: 0
Flags: HW
PickledData: "(dp1
S'com.typemytype.robofont.layerData'
p2
(dp3
S'back'
p4
(dp5
S'name'
p6
S'a'
sS'lib'
p7
(dp8
sS'unicodes'
p9
(tsS'width'
p10
I1009
sS'contours'
p11
((dp12
S'points'
p13
((dp14
S'segmentType'
p15
S'line'
p16
sS'x'
I746
sS'smooth'
p17
I00
sS'y'
I1023
s(dp18
g15
S'line'
p19
sS'x'
I888
sg17
I00
sS'y'
I1023
s(dp20
g15
S'line'
p21
sS'x'
I888
sg17
I00
sS'y'
I0
s(dp22
g15
S'line'
p23
sS'x'
I746
sg17
I00
sS'y'
I0
stp24
stp25
sS'components'
p26
(tsS'anchors'
p27
(tsss."
LayerCount: 2
Fore
SplineSet
124 907 m 1
 230 993 360 1044 512 1044 c 0
 754 1044 888 927 888 673 c 2
 888 186 l 2
 888 125 894 59 898 0 c 1
 769 0 l 1
 764 40 750 110 750 110 c 1
 641 9 524 -24 387 -24 c 0
 226 -24 88 79 88 257 c 0
 88 513 302 579 645 579 c 2
 746 579 l 1
 746 637 l 2
 746 865.305 676.143 935 504 935 c 0
 390 935 265 873 193 812 c 1
 193 813 140 884 124 907 c 1
746 483 m 1
 648 483 l 2
 429 483 222 450 222 266 c 0
 222 153 291 81 415 81 c 0
 536 81 656 143 746 219 c 1
 746 483 l 1
EndSplineSet
EndChar

StartChar: acute
Encoding: 180 180 75
Width: 494
VWidth: 0
Flags: W
LayerCount: 2
Fore
SplineSet
165 1023 m 1
 165 1023 l 1
254 1492 m 1
 449 1492 l 1
 141 1172 l 1
 49 1172 l 1
 254 1492 l 1
249 1023 m 0
EndSplineSet
EndChar

StartChar: ae
Encoding: 230 230 77
Width: 1742
VWidth: 0
Flags: HW
LayerCount: 2
Fore
SplineSet
164 927 m 1
 278 1006 397 1044 549 1044 c 0
 713 1044 845 979 873 832 c 1
 934 966 1073 1044 1222 1044 c 0
 1507 1044 1618 844 1618 572 c 0
 1618 563 1617 525 1615 508 c 1
 927 494 l 1
 927 272 994 81 1222 81 c 0
 1398 81 1469 200 1500 317 c 1
 1597 277 l 1
 1548 85 1400 -22 1226 -24 c 1
 1068 -24 932 57 874 185 c 1
 791 41 624 -25 460 -25 c 0
 285 -25 115 58 115 251 c 0
 115 507 339 573 644 579 c 0
 658 579 769 586 783 586 c 1
 783 820 756 940 554 940 c 0
 393 940 321 894 234 838 c 1
 164 927 l 1
802 318 m 0
 802 360 792 462 792 487 c 1
 651 480 l 2
 432 469 257 440 257 256 c 0
 257 134 365 80 471 80 c 0
 638 80 802 158 802 318 c 0
1481 606 m 1
 1480 816 1409 941 1218 941 c 0
 1034 941 938 774 928 592 c 1
 1481 606 l 1
EndSplineSet
EndChar

StartChar: ampersand
Encoding: 38 38 79
Width: 1391
VWidth: 0
Flags: W
LayerCount: 2
Fore
SplineSet
734 1489 m 0
 903 1489 1052 1398 1052 1220 c 0
 1052 1045 903 933 689 832 c 1
 1053 381 l 1
 1124 481 1164 655 1200 810 c 1
 1328 791 l 1
 1282 576 1214 406 1140 285 c 1
 1219 194 1255 139 1342 57 c 1
 1254 -21 l 1
 1176 47 1116 123 1050 195 c 1
 928 77 734 -26 513 -26 c 0
 249 -26 65 123 65 369 c 0
 65 612 246 777 496 873 c 1
 411 979 366 1069 366 1180 c 0
 366 1380 546 1489 734 1489 c 0
730 1391 m 0
 615 1391 501 1316 501 1190 c 0
 501 1092 548 1008 625 917 c 1
 840 1020 924 1098 924 1213 c 0
 924 1333 831 1391 730 1391 c 0
561 785 m 1
 303 666 212 547.286 212 379 c 0
 212 216 317 85 533 85 c 0
 673 85 853 150 972 283 c 1
 842 445 680 635 561 785 c 1
EndSplineSet
EndChar

StartChar: asciicircum
Encoding: 94 94 81
Width: 1053
VWidth: 0
Flags: W
LayerCount: 2
Fore
SplineSet
241 100 m 1
 103 100 l 1
 469 999 l 1
 595 999 l 1
 950 100 l 1
 798 100 l 1
 525 837 l 1
 241 100 l 1
EndSplineSet
EndChar

StartChar: asciitilde
Encoding: 126 126 82
Width: 919
VWidth: 0
Flags: W
LayerCount: 2
Fore
SplineSet
305 976 m 0
 265 976 229 937 209 848 c 1
 209 848 111 888 111 889 c 0
 111 1036.34 244.724 1101 309 1101 c 0
 426 1101 551 973 617 973 c 0
 658 973 693 1015 710 1103 c 1
 710 1103 809 1069 809 1068 c 0
 809 932.215 691.47 848 618 848 c 0
 501 848 338 976 305 976 c 0
413 1023 m 1
 413 1023 l 1
EndSplineSet
EndChar

StartChar: asterisk
Encoding: 42 42 83
Width: 944
VWidth: 0
Flags: W
LayerCount: 2
Fore
SplineSet
522 649 m 1
 422 649 l 1
 422 916 l 1
 167 781 l 1
 120 869 l 1
 365 999 l 1
 119 1129 l 1
 166 1217 l 1
 422 1082 l 1
 422 1350 l 1
 522 1350 l 1
 522 1083 l 1
 777 1218 l 1
 824 1130 l 1
 579 1000 l 1
 825 870 l 1
 778 782 l 1
 522 917 l 1
 522 649 l 1
497 1023 m 1
 497 1023 l 1
EndSplineSet
EndChar

StartChar: b
Encoding: 98 98 85
Width: 1078
VWidth: 0
Flags: W
PickledData: "(dp1
S'com.typemytype.robofont.layerData'
p2
(dp3
S'back'
p4
(dp5
S'name'
p6
S'b'
sS'lib'
p7
(dp8
sS'unicodes'
p9
(tsS'width'
p10
I1078
sS'contours'
p11
((dp12
S'points'
p13
((dp14
S'segmentType'
p15
S'line'
p16
sS'x'
I125
sS'smooth'
p17
I00
sS'y'
I1023
s(dp18
g15
S'line'
p19
sS'x'
I267
sg17
I00
sS'y'
I1023
s(dp20
g15
S'line'
p21
sS'x'
I267
sg17
I00
sS'y'
I0
s(dp22
g15
S'line'
p23
sS'x'
I125
sg17
I00
sS'y'
I0
stp24
stp25
sS'components'
p26
(tsS'anchors'
p27
(tsss."
LayerCount: 2
Fore
SplineSet
125 0 m 1
 125 1493 l 1
 268 1493 l 1
 268 1102 l 1
 268 865 l 1
 327 985 449 1044 589 1044 c 0
 837 1044 982 840 982 502 c 0
 982 191 843 -24 580 -24 c 0
 436 -24 308 39 257 161 c 1
 238 0 l 1
 125 0 l 1
570 940 m 0
 320 940 262 712 262 488 c 0
 262 131 437 81 563 81 c 0
 744 81 837 262 837 499 c 0
 837 784 746 940 570 940 c 0
EndSplineSet
EndChar

StartChar: backslash
Encoding: 92 92 86
Width: 632
VWidth: 0
Flags: W
LayerCount: 2
Fore
SplineSet
588 -5 m 1
 443 -5 l 1
 46 1464 l 1
 191 1464 l 1
 588 -5 l 1
EndSplineSet
EndChar

StartChar: bar
Encoding: 124 124 87
Width: 416
VWidth: 0
Flags: W
LayerCount: 2
Fore
SplineSet
281 -197 m 1
 135 -197 l 1
 135 1502 l 1
 281 1502 l 1
 281 -197 l 1
207 0 m 1
 207 0 l 1
EndSplineSet
EndChar

StartChar: braceleft
Encoding: 123 123 88
Width: 626
VWidth: 0
Flags: W
LayerCount: 2
Fore
SplineSet
163 446 m 0
 163 575 133 663 44 685 c 1
 44 780 l 1
 133 802 163 890 163 1019 c 0
 163 1318 259 1468 572 1491 c 1
 574 1386 l 1
 318 1375 314 1221 314 1019 c 0
 314 878 271 786 195 732 c 1
 271 678 314 587 314 446 c 0
 314 245 318 91 574 80 c 1
 572 -25 l 1
 259 -2 163 147 163 446 c 0
EndSplineSet
EndChar

StartChar: braceright
Encoding: 125 125 89
Width: 621
VWidth: 0
Flags: W
LayerCount: 2
Fore
SplineSet
460 446 m 0
 460 147 364 -85 51 -108 c 1
 51 -3 l 1
 307 8 309 245 309 446 c 0
 309 587 352 678 428 732 c 1
 352 786 309 878 309 1019 c 0
 309 1221 307 1482 51 1493 c 1
 51 1598 l 1
 364 1575 460 1318 460 1019 c 0
 460 890 490 802 579 780 c 1
 579 685 l 1
 490 663 460 575 460 446 c 0
EndSplineSet
EndChar

StartChar: bracketleft
Encoding: 91 91 90
Width: 708
VWidth: 0
Flags: W
LayerCount: 2
Fore
SplineSet
132 -52 m 1
 132 1480 l 1
 590 1480 l 1
 590 1374 l 1
 277 1374 l 1
 277 55 l 1
 590 55 l 1
 590 -52 l 1
 132 -52 l 1
EndSplineSet
EndChar

StartChar: bracketright
Encoding: 93 93 91
Width: 707
VWidth: 0
Flags: W
LayerCount: 2
Fore
SplineSet
119 1374 m 1
 119 1480 l 1
 576 1480 l 1
 576 -52 l 1
 119 -52 l 1
 119 55 l 1
 431 55 l 1
 431 1374 l 1
 119 1374 l 1
EndSplineSet
EndChar

StartChar: breve
Encoding: 272 728 92
Width: 805
VWidth: 0
Flags: HW
LayerCount: 2
Fore
SplineSet
402 1183 m 0
 265 1183 130 1268 126 1438 c 1
 252 1438 l 1
 255 1345 328 1299 402 1299 c 0
 476 1299 549 1345 552 1438 c 1
 678 1438 l 1
 674 1268 539 1183 402 1183 c 0
EndSplineSet
EndChar

StartChar: c
Encoding: 99 99 93
Width: 993
VWidth: 0
Flags: HW
PickledData: "(dp1
S'com.typemytype.robofont.layerData'
p2
(dp3
s."
LayerCount: 2
Fore
SplineSet
96 509 m 0
 96 817 242 1044 538 1044 c 0
 692 1044 855 975 911 733 c 1
 792 701 l 1
 750 862 674 940 544 940 c 0
 332 940 239 767 239 512 c 0
 239 260 330 81 538 81 c 0
 671 81 753 167 799 323 c 1
 908 289 l 1
 858 64 694 -24 535 -24 c 0
 243 -24 96 198 96 509 c 0
EndSplineSet
EndChar

StartChar: caron
Encoding: 273 711 94
Width: 835
VWidth: 0
Flags: HW
LayerCount: 2
Fore
SplineSet
515 1172 m 1
 320 1172 l 1
 115 1492 l 1
 207 1492 l 1
 417 1274 l 1
 628 1492 l 1
 720 1492 l 1
 515 1172 l 1
EndSplineSet
EndChar

StartChar: cedilla
Encoding: 184 184 97
Width: 435
VWidth: 0
Flags: W
LayerCount: 2
Fore
SplineSet
230 -187 m 1
 130 -187 l 1
 130 0 l 1
 279 0 l 1
 279 0 307 -73 307 -199 c 0
 307 -291 283 -380 184 -380 c 0
 170 -380 156 -377 142 -371 c 1
 142 -299 l 1
 149 -300 155 -301 162 -301 c 0
 195 -301 230 -275 230 -187 c 1
190 0 m 1
 190 0 l 1
218.5 0 m 0
EndSplineSet
EndChar

StartChar: cent
Encoding: 162 162 98
Width: 993
VWidth: 0
Flags: HW
LayerCount: 2
Fore
SplineSet
484 -208 m 1
 577 -208 l 1
 577 -21.7188018469 l 1
 721.263719055 -6.61394453628 860.608569103 84.7385609615 906 289 c 1
 805 323 l 1
 763.895391585 183.601762768 687.657556022 100.097296001 577 83.9027067689 c 1
 577 937.981641668 l 1
 687.22573027 924.811597492 759.896820733 847.06218719 798 701 c 1
 909 733 l 1
 857.953820008 953.592420678 718.000995688 1030.43858464 577 1042.30815729 c 1
 577 1253 l 1
 484 1253 l 1
 484 1041.547233 l 1
 222.893991506 1016.27978893 94 798.394734574 94 509 c 0
 94 215.908330958 224.558004879 1.86198459809 484 -21.8170657874 c 1
 484 -208 l 1
484 935.261240661 m 1
 484 85.0517692673 l 1
 312.751098031 112.929947822 237 282.081291734 237 512 c 0
 237 742.425231515 312.938611621 905.893837729 484 935.261240661 c 1
EndSplineSet
EndChar

StartChar: circumflex
Encoding: 275 710 99
Width: 838
VWidth: 0
Flags: HW
LayerCount: 2
Fore
SplineSet
321 1492 m 1
 516 1492 l 1
 721 1172 l 1
 629 1172 l 1
 418 1390 l 1
 208 1172 l 1
 116 1172 l 1
 321 1492 l 1
EndSplineSet
EndChar

StartChar: colon
Encoding: 58 58 100
Width: 482
VWidth: 0
Flags: HW
LayerCount: 2
Fore
SplineSet
160 238 m 1
 221 238 278 235 332 230 c 1
 332 153 329 81 324 13 c 1
 295 13 l 2
 244 13 197 15 152 20 c 1
 152 98 155 170 160 238 c 1
160 854 m 1
 222 854 278 851 332 846 c 1
 332 769 329 698 324 630 c 1
 263 630 206 632 152 637 c 1
 152 715 154 786 160 854 c 1
EndSplineSet
EndChar

StartChar: comma
Encoding: 44 44 101
Width: 445
VWidth: 0
Flags: W
LayerCount: 2
Fore
SplineSet
134 219 m 1
 325 219 l 1
 324 134 l 1
 319 -24 295 -163 163 -254 c 1
 114 -192 l 1
 139 -172 191 -105 194 16 c 1
 134 29 l 1
 134 219 l 1
EndSplineSet
EndChar

StartChar: commaaccent
Encoding: 276 806 102
Width: 444
VWidth: 0
Flags: W
LayerCount: 2
Fore
SplineSet
208 0 m 1
 208 0 l 1
134 -86 m 1
 325 -86 l 1
 324 -171 l 1
 319 -329 295 -468 163 -559 c 1
 114 -497 l 1
 139 -477 191 -410 194 -289 c 1
 134 -276 l 1
 134 -86 l 1
219.5 0 m 0
EndSplineSet
EndChar

StartChar: copyright
Encoding: 169 169 103
Width: 1702
VWidth: 0
Flags: W
LayerCount: 2
Fore
SplineSet
856 1247 m 0
 992 1247 1091 1172 1129 1015 c 1
 1058 997 l 1
 1034 1102 975 1177 853 1177 c 0
 670 1177 598 1035 598 799 c 0
 598 544 662 415 854 415 c 0
 973 415 1033 481 1066 584 c 1
 1132 561 l 1
 1088 413 986 344 850 344 c 0
 636 344 517 475 517 799 c 0
 517 1115 653 1247 856 1247 c 0
1579 774 m 0
 1579 375 1251 47 850 47 c 0
 451 47 123 375 123 774 c 0
 123 1175 451 1503 850 1503 c 0
 1251 1503 1579 1175 1579 774 c 0
849 100 m 0
 1220 100 1523 403 1523 773 c 0
 1523 1144 1220 1447 849 1447 c 0
 479 1447 176 1144 176 773 c 0
 176 403 479 100 849 100 c 0
852 315 m 1
 852 315 l 1
784 0 m 1
 784 0 l 1
859 1436 m 1
 859 1436 l 1
EndSplineSet
EndChar

StartChar: d
Encoding: 100 100 104
Width: 1062
VWidth: 0
Flags: HW
PickledData: "(dp1
S'com.typemytype.robofont.layerData'
p2
(dp3
S'back'
p4
(dp5
S'name'
p6
S'd'
sS'lib'
p7
(dp8
sS'unicodes'
p9
(tsS'width'
p10
I1062
sS'contours'
p11
((dp12
S'points'
p13
((dp14
S'segmentType'
p15
S'curve'
p16
sS'x'
F506
sS'smooth'
p17
I01
sS'y'
F81
s(dp18
S'y'
F81
sS'x'
F636
sg17
I00
s(dp19
S'y'
F127
sS'x'
F800
sg17
I00
s(dp20
g15
S'curve'
p21
sS'x'
F800
sg17
I00
sS'y'
F481
s(dp22
g15
S'line'
p23
sS'x'
F800
sg17
I00
sS'y'
F499
s(dp24
g15
S'line'
p25
sS'x'
F800
sg17
I00
sS'y'
F519
s(dp26
S'y'
F754
sS'x'
F800
sg17
I00
s(dp27
S'y'
F940
sS'x'
F731
sg17
I00
s(dp28
g15
S'curve'
p29
sS'x'
F504
sg17
I01
sS'y'
F940
s(dp30
S'y'
F940
sS'x'
F332
sg17
I00
s(dp31
S'y'
F765
sS'x'
F242
sg17
I00
s(dp32
g15
S'curve'
p33
sS'x'
F242
sg17
I01
sS'y'
F499
s(dp34
S'y'
F262
sS'x'
F242
sg17
I00
s(dp35
S'y'
F81
sS'x'
F336
sg17
I00
stp36
s(dp37
g13
((dp38
g15
S'curve'
p39
sS'x'
F96
sg17
I01
sS'y'
F500
s(dp40
S'y'
F832
sS'x'
F96
sg17
I00
s(dp41
S'y'
F1044
sS'x'
F230
sg17
I00
s(dp42
g15
S'curve'
p43
sS'x'
F484
sg17
I01
sS'y'
F1044
s(dp44
S'y'
F1044
sS'x'
F629
sg17
I00
s(dp45
S'y'
F986
sS'x'
F748
sg17
I00
s(dp46
g15
S'curve'
p47
sS'x'
F794
sg17
I00
sS'y'
F863
s(dp48
g15
S'line'
p49
sS'x'
F794
sg17
I00
sS'y'
F1474
s(dp50
g15
S'line'
p51
sS'x'
F937
sg17
I00
sS'y'
F1474
s(dp52
g15
S'line'
p53
sS'x'
F937
sg17
I00
sS'y'
F0
s(dp54
g15
S'line'
p55
sS'x'
F823
sg17
I00
sS'y'
F0
s(dp56
g15
S'line'
p57
sS'x'
F804
sg17
I00
sS'y'
F172
s(dp58
S'y'
F51
sS'x'
F752
sg17
I00
s(dp59
S'y'
F-24
sS'x'
F629
sg17
I00
s(dp60
g15
S'curve'
p61
sS'x'
F488
sg17
I01
sS'y'
F-24
s(dp62
S'y'
F-24
sS'x'
F239
sg17
I00
s(dp63
S'y'
F188
sS'x'
F96
sg17
I00
stp64
stp65
sS'components'
p66
(tsS'anchors'
p67
((dp68
S'y'
F512
sS'x'
F533
sg6
S'center'
p69
stp70
sss."
LayerCount: 2
Fore
SplineSet
96 500 m 0
 96 832 230 1044 484 1044 c 0
 629 1044 748 986 794 863 c 1
 794 1474 l 1
 937 1474 l 1
 937 0 l 1
 823 0 l 1
 804 172 l 1
 752 51 629 -24 488 -24 c 0
 239 -24 96 188 96 500 c 0
506 81 m 0
 636 81 800 127 800 499 c 0
 800 748 736 940 504 940 c 0
 332 940 242 765 242 499 c 0
 242 262 336 81 506 81 c 0
EndSplineSet
EndChar

StartChar: dieresis
Encoding: 168 168 105
Width: 860
VWidth: 0
Flags: W
LayerCount: 2
Fore
SplineSet
436 1044 m 1
 436 1044 l 1
135 1375 m 1
 310 1377 l 1
 310 1190 l 1
 135 1190 l 1
 135 1375 l 1
551 1377 m 1
 725 1377 l 1
 725 1190 l 1
 551 1190 l 1
 551 1377 l 1
430 1023 m 0
EndSplineSet
EndChar

StartChar: dollar
Encoding: 36 36 106
Width: 1323
VWidth: 0
Flags: W
LayerCount: 2
Fore
SplineSet
671 1482 m 0
 903 1482 1060 1404 1178 1224 c 1
 1070 1144 l 1
 990 1286 850 1364 692 1364 c 0
 499 1364 337 1298 337 1128 c 0
 337 931 593 895 766 829 c 0
 1035 726 1211 646 1211 393 c 0
 1211 126 994 -25 668 -25 c 0
 443 -25 154 69 98 373 c 1
 221 426 l 1
 281 205 430 101 677 101 c 0
 856 101 1058 167 1058 388 c 0
 1058 584 902 633 618 731 c 0
 408 804 184 877 184 1116 c 0
 184 1369 425 1482 671 1482 c 0
640 -201 m 1
 640 1674 l 1
 733 1674 l 1
 733 -201 l 1
 640 -201 l 1
EndSplineSet
EndChar

StartChar: dotaccent
Encoding: 277 729 107
Width: 539
VWidth: 0
Flags: HW
LayerCount: 2
Fore
SplineSet
270 1248 m 0
 175 1248 128 1320 128 1393 c 0
 128 1464 175 1537 270 1537 c 0
 365 1537 412 1464 412 1393 c 0
 412 1320 365 1248 270 1248 c 0
EndSplineSet
EndChar

StartChar: uni0307
Encoding: 278 775 108
Width: 539
VWidth: 0
Flags: HW
LayerCount: 2
Fore
SplineSet
270 1248 m 0
 175 1248 128 1320 128 1393 c 0
 128 1464 175 1537 270 1537 c 0
 365 1537 412 1464 412 1393 c 0
 412 1320 365 1248 270 1248 c 0
EndSplineSet
EndChar

StartChar: dotlessi
Encoding: 279 305 109
Width: 411
VWidth: 0
Flags: HW
LayerCount: 2
Fore
SplineSet
140 0 m 1
 140 1023 l 1
 282 1023 l 1
 282 0 l 1
 140 0 l 1
EndSplineSet
EndChar

StartChar: uni0237
Encoding: 280 567 110
Width: 530
VWidth: 0
Flags: HW
LayerCount: 2
Fore
SplineSet
262 -87 m 2
 262 1023 l 1
 404 1023 l 1
 404 -12 l 2
 404 -217 377 -325 185 -325 c 0
 134 -325 81 -309 33 -281 c 1
 57 -191 l 1
 95 -205 133 -214 166 -214 c 0
 225 -214 262 -178 262 -87 c 2
EndSplineSet
EndChar

StartChar: e
Encoding: 101 101 111
Width: 1037
VWidth: 0
Flags: HW
PickledData: "(dp1
S'com.typemytype.robofont.layerData'
p2
(dp3
s."
LayerCount: 2
Fore
SplineSet
96 512 m 0
 96 823 253 1044 535 1044 c 0
 820 1044 942 830 942 558 c 0
 942 549 941 515 939 498 c 1
 240 498 l 1
 240 277 323 81 543 81 c 0
 702.006 81 775.81 200.26 806 318 c 1
 921 277 l 1
 872.432 82.728 713.012 -24 542 -24 c 0
 226 -24 96 231 96 512 c 0
241 592 m 1
 805 592 l 1
 804 802 722 941 531 941 c 0
 347 941 251 774 241 592 c 1
EndSplineSet
EndChar

StartChar: eight
Encoding: 56 56 116
Width: 1236
VWidth: 0
Flags: HW
LayerCount: 2
Fore
SplineSet
530.482421875 703.270507812 m 1
 376.293945312 610.064453125 296.440429688 476.681640625 296.440429688 357 c 0
 296.440429688 208.405273438 410.083007812 83 615.514648438 83 c 0
 772.384765625 83 946.440429688 182.393554688 946.440429688 368 c 0
 946.440429688 606.451171875 724.900390625 671.217773438 530.482421875 703.270507812 c 1
138 340.97265625 m 0
 138 492.41796875 226.421875 630.034179688 430.310546875 748.53125 c 1
 316.611328125 801.564453125 149.440429688 907.048828125 149.440429688 1083 c 0
 149.440429688 1361.79882812 387.969726562 1492 626.2421875 1492 c 0
 870.791992188 1492 1098.44042969 1364.88476562 1098.44042969 1088 c 0
 1098.44042969 891.678710938 888.603515625 773.458007812 799.602539062 740.926757812 c 1
 1055.27832031 618.344726562 1093.81054688 505.94921875 1093.81054688 364.823242188 c 0
 1093.81054688 161.034179688 916.970703125 -24.00390625 601.33984375 -24.00390625 c 0
 313.750976562 -24.00390625 138 145.046875 138 340.97265625 c 0
693.647460938 789.827148438 m 1
 788.017578125 837.044921875 931.440429688 923.072265625 931.440429688 1092 c 0
 931.440429688 1286.34570312 790.21875 1379 626.2421875 1379 c 0
 473.348632812 1379 307.2578125 1297.92480469 307.2578125 1096.64746094 c 0
 307.2578125 893.5 481.518554688 814.108398438 693.647460938 789.827148438 c 1
EndSplineSet
EndChar

StartChar: equal
Encoding: 61 61 117
Width: 820
VWidth: 0
Flags: W
LayerCount: 2
Fore
SplineSet
135 550 m 1
 135 650 l 1
 685 650 l 1
 685 550 l 1
 135 550 l 1
135 300 m 1
 135 400 l 1
 685 400 l 1
 685 300 l 1
 135 300 l 1
EndSplineSet
EndChar

StartChar: eth
Encoding: 240 240 118
Width: 1074
VWidth: 0
Flags: W
LayerCount: 2
Fore
SplineSet
469 1002 m 1
 619 1099 l 1
 525 1170 405 1199 274 1199 c 1
 295 1292 l 1
 462 1292 606 1252 718 1163 c 1
 894 1278 l 1
 947 1203 l 1
 785 1098 l 1
 897 970 962 775 962 498 c 0
 962 218 819 -25 519 -25 c 0
 257 -25 116 196 116 410 c 0
 116 674 302 810 520 810 c 0
 619 810 728 775 820 704 c 1
 801 850 754 958 688 1035 c 1
 522 927 l 1
 469 1002 l 1
826 580 m 1
 771 645 625 698 531 698 c 0
 377 698 255 620 255 407 c 0
 255 184 390 84 528 84 c 0
 739 84 833 257 833 506 c 0
 833 530 832 554 826 580 c 1
EndSplineSet
EndChar

StartChar: exclam
Encoding: 33 33 119
Width: 428
VWidth: 0
Flags: W
LayerCount: 2
Fore
SplineSet
173 304 m 1
 121 1465 l 1
 306 1465 l 1
 249 305 l 1
 173 304 l 1
138 197 m 1
 302 197 l 1
 302 0 l 1
 138 0 l 1
 138 197 l 1
EndSplineSet
EndChar

StartChar: exclamdown
Encoding: 161 161 120
Width: 426
VWidth: 0
Flags: W
LayerCount: 2
Fore
SplineSet
174 1161 m 1
 250 1160 l 1
 307 0 l 1
 122 0 l 1
 174 1161 l 1
139 1268 m 1
 139 1465 l 1
 303 1465 l 1
 303 1268 l 1
 139 1268 l 1
EndSplineSet
EndChar

StartChar: f
Encoding: 102 102 121
Width: 659
VWidth: 0
Flags: W
LayerCount: 2
Fore
SplineSet
468 1365 m 0
 368 1365 367 1275 367 1137 c 2
 367 1023 l 1
 567 1023 l 1
 567 917 l 1
 367 917 l 1
 367 -1 l 1
 225 -1 l 1
 225 917 l 1
 52 917 l 1
 52 1023 l 1
 225 1023 l 1
 225 1140 l 2
 225 1361 284 1471 459 1471 c 0
 517 1471 571 1454 615 1430 c 1
 581 1338 l 1
 541 1353 500 1365 468 1365 c 0
EndSplineSet
EndChar

StartChar: five
Encoding: 53 53 122
Width: 1163
VWidth: 0
Flags: HW
LayerCount: 2
Fore
SplineSet
593.784179688 952 m 0
 916.48828125 952 1058.20507812 726.577148438 1058.20507812 485.326171875 c 0
 1058.20507812 206.6015625 878.14453125 -22.0068359375 569.049804688 -22.0068359375 c 0
 351.771484375 -22.0068359375 175.91015625 77.9033203125 85 309.158203125 c 1
 209.127929688 359.185546875 l 1
 284.630859375 195.65625 413.009765625 95 560.203125 95 c 0
 788.42578125 95 909.061523438 288.874023438 909.061523438 477 c 0
 909.061523438 656.061523438 803.241210938 832 587.858398438 832 c 0
 486.833984375 832 372.174804688 792.202148438 261.942382812 708.671875 c 1
 171.282226562 768.469726562 l 1
 266.690429688 1488.09960938 l 5
 968.061523438 1488.09960938 l 5
 968.061523438 1361.09960938 l 5
 397.626953125 1361.09960938 l 5
 329.305664062 879.965820312 l 1
 334.25 882.276367188 l 1
 424.424804688 931.920898438 513.576171875 952 593.784179688 952 c 0
EndSplineSet
EndChar

StartChar: four
Encoding: 52 52 123
Width: 1242
VWidth: 0
Flags: HW
LayerCount: 2
Fore
SplineSet
144 104 m 1
 676 1022 l 1
 846 1022 l 1
 846 108 l 1
 1101 108 l 1
 1101 0 l 1
 837 0 l 1
 837 -357 l 1
 707 -357 l 1
 707 0 l 1
 144 0 l 1
 144 104 l 1
707 854 m 1
 295 108 l 1
 707 108 l 1
 707 854 l 1
EndSplineSet
EndChar

StartChar: g
Encoding: 103 103 124
Width: 1078
VWidth: 0
Flags: HW
PickledData: "(dp1
S'com.typemytype.robofont.layerData'
p2
(dp3
S'back'
p4
(dp5
S'name'
p6
S'g'
sS'lib'
p7
(dp8
sS'unicodes'
p9
(tsS'width'
p10
I1078
sS'contours'
p11
((dp12
S'points'
p13
((dp14
S'segmentType'
p15
S'line'
p16
sS'x'
I811
sS'smooth'
p17
I00
sS'y'
I1023
s(dp18
g15
S'line'
p19
sS'x'
I953
sg17
I00
sS'y'
I1023
s(dp20
g15
S'line'
p21
sS'x'
I953
sg17
I00
sS'y'
I0
s(dp22
g15
S'line'
p23
sS'x'
I811
sg17
I00
sS'y'
I0
stp24
stp25
sS'components'
p26
(tsS'anchors'
p27
(tsss."
LayerCount: 2
Fore
SplineSet
820 543 m 2
 820 886 634 940 520 940 c 0
 317 940 231 737 231 530 c 0
 231 239 347 81 515 81 c 0
 649 81 820 148 820 509 c 2
 820 543 l 2
511 -429 m 0
 405 -429 223 -382 144 -192 c 1
 250 -149 l 1
 307 -260 392 -320 530 -320 c 0
 725 -320 820 -187 820 28 c 2
 820 130 l 1
 751 39 655 -24 510 -24 c 0
 242 -24 96 205 96 526 c 0
 96 823 236 1044 504 1044 c 0
 636 1044 750 988 831 891 c 1
 839 1023 l 1
 953 1023 l 1
 953 28 l 2
 953 -230 813 -429 511 -429 c 0
EndSplineSet
EndChar

StartChar: germandbls
Encoding: 223 223 125
Width: 1234
VWidth: 0
Flags: W
LayerCount: 2
Fore
SplineSet
140 0 m 1
 140 1151 l 2
 140 1373 360 1492 578 1492 c 0
 836 1492 950 1305 950 1150 c 0
 950 1004.55 877.185 884.721 703 843 c 1
 980.172 819.034 1151 643.102 1151 395 c 0
 1151 122 969 -95 451 -134 c 1
 451 -17 l 1
 875 21 1003 193 1003 395 c 0
 1003 604.395 881.791 748 547 748 c 2
 454 748 l 1
 454 855 l 1
 698.177 883.417 814 988.577 814 1149 c 0
 814 1262 731 1388 575 1388 c 0
 430 1388 286 1303 286 1140 c 2
 286 0 l 1
 140 0 l 1
EndSplineSet
EndChar

StartChar: grave
Encoding: 96 96 126
Width: 496
VWidth: 0
Flags: W
LayerCount: 2
Fore
SplineSet
352 1053 m 1
 352 1053 l 1
47 1492 m 1
 242 1492 l 1
 447 1173 l 1
 353 1172 l 1
 47 1492 l 1
247 1023 m 0
EndSplineSet
EndChar

StartChar: greater
Encoding: 62 62 127
Width: 1051
VWidth: 0
Flags: W
LayerCount: 2
Fore
SplineSet
53 812 m 1
 53 950 l 1
 1002 584 l 1
 1002 458 l 1
 53 103 l 1
 53 255 l 1
 840 528 l 1
 53 812 l 1
EndSplineSet
EndChar

StartChar: guillemotleft
Encoding: 171 171 128
Width: 946
VWidth: 0
Flags: W
LayerCount: 2
Fore
SplineSet
894 251 m 1
 449 552 l 1
 449 749 l 1
 894 1050 l 1
 894 909 l 1
 547 650 l 1
 894 393 l 1
 894 251 l 1
51 552 m 1
 51 749 l 1
 496 1050 l 1
 496 909 l 1
 149 650 l 1
 496 393 l 1
 496 251 l 1
 51 552 l 1
520 1260 m 1
 520 1260 l 1
EndSplineSet
EndChar

StartChar: guillemotright
Encoding: 187 187 129
Width: 946
VWidth: 0
Flags: W
LayerCount: 2
Fore
SplineSet
53 1049 m 1
 498 748 l 1
 498 551 l 1
 53 250 l 1
 53 391 l 1
 400 650 l 1
 53 907 l 1
 53 1049 l 1
896 748 m 1
 896 551 l 1
 451 250 l 1
 451 391 l 1
 798 650 l 1
 451 907 l 1
 451 1049 l 1
 896 748 l 1
427 251 m 1
 427 251 l 1
EndSplineSet
EndChar

StartChar: h
Encoding: 104 104 130
Width: 1072
VWidth: 0
Flags: HW
PickledData: "(dp1
S'com.typemytype.robofont.layerData'
p2
(dp3
S'back'
p4
(dp5
S'name'
p6
S'h'
sS'lib'
p7
(dp8
sS'unicodes'
p9
(tsS'width'
p10
I1072
sS'contours'
p11
((dp12
S'points'
p13
((dp14
S'segmentType'
p15
S'line'
p16
sS'x'
I126
sS'smooth'
p17
I00
sS'y'
I1023
s(dp18
g15
S'line'
p19
sS'x'
I268
sg17
I00
sS'y'
I1023
s(dp20
g15
S'line'
p21
sS'x'
I268
sg17
I00
sS'y'
I0
s(dp22
g15
S'line'
p23
sS'x'
I126
sg17
I00
sS'y'
I0
stp24
stp25
sS'components'
p26
(tsS'anchors'
p27
(tsss."
LayerCount: 2
Fore
SplineSet
598 940 m 0
 344 940 268 723 268 483 c 2
 268 0 l 1
 126 0 l 1
 126 1473 l 1
 268 1473 l 1
 268 1053 l 2
 268 862 l 1
 356 999 486 1044 619 1044 c 0
 945 1044 976 784 976 583 c 2
 976 0 l 1
 834 0 l 1
 834 594 l 2
 834 807 782 940 598 940 c 0
EndSplineSet
EndChar

StartChar: hbar
Encoding: 281 295 131
Width: 1117
VWidth: 0
Flags: W
LayerCount: 2
Fore
SplineSet
-1 1205 m 1
 -1 1299 l 1
 140 1299 l 1
 140 1473 l 1
 283 1473 l 1
 283 1299 l 1
 550 1299 l 1
 550 1205 l 1
 283 1205 l 1
 283 1053 l 2
 283 989 283 925 282 862 c 1
 370 999 501 1044 634 1044 c 0
 960 1044 991 784 991 583 c 2
 991 0 l 1
 849 0 l 1
 849 594 l 2
 849 807 797 940 613 940 c 0
 359 940 283 723 283 483 c 2
 283 0 l 1
 140 0 l 1
 140 1205 l 1
 -1 1205 l 1
EndSplineSet
EndChar

StartChar: hungarumlaut
Encoding: 282 733 132
Width: 745
VWidth: 0
Flags: HW
LayerCount: 2
Fore
SplineSet
192 1492 m 1
 387 1492 l 1
 159 1172 l 1
 67 1172 l 1
 192 1492 l 1
490 1492 m 1
 685 1492 l 1
 457 1172 l 1
 365 1172 l 1
 490 1492 l 1
EndSplineSet
EndChar

StartChar: hyphen
Encoding: 45 45 133
Width: 724
VWidth: 0
Flags: W
LayerCount: 2
Fore
SplineSet
135 334 m 1
 135 420 l 1
 589 420 l 1
 589 334 l 1
 135 334 l 1
EndSplineSet
EndChar

StartChar: i
Encoding: 105 105 134
Width: 412
VWidth: 0
Flags: W
PickledData: "(dp1
S'com.typemytype.robofont.layerData'
p2
(dp3
s."
LayerCount: 2
Fore
SplineSet
134 1242 m 1
 134 1421 l 1
 275 1421 l 1
 275 1242 l 1
 134 1242 l 1
136 0 m 1
 136 1023 l 1
 278 1023 l 1
 278 0 l 1
 136 0 l 1
EndSplineSet
EndChar

StartChar: j
Encoding: 106 106 142
Width: 523
VWidth: 0
Flags: W
LayerCount: 2
Fore
SplineSet
255 -87 m 2
 255 1023 l 1
 397 1023 l 1
 397 -12 l 2
 397 -217 370 -325 178 -325 c 0
 127 -325 74 -314 26 -286 c 1
 50 -175 l 1
 88 -189 126 -204 159 -204 c 0
 218 -204 255 -178 255 -87 c 2
257 1242 m 1
 257 1421 l 1
 398 1421 l 1
 398 1242 l 1
 257 1242 l 1
EndSplineSet
EndChar

StartChar: k
Encoding: 107 107 144
Width: 1044
VWidth: 0
Flags: HW
PickledData: "(dp1
S'com.typemytype.robofont.layerData'
p2
(dp3
S'back'
p4
(dp5
S'name'
p6
S'k'
sS'lib'
p7
(dp8
sS'unicodes'
p9
(tsS'width'
p10
I1044
sS'contours'
p11
((dp12
S'points'
p13
((dp14
S'segmentType'
p15
S'line'
p16
sS'x'
I130
sS'smooth'
p17
I00
sS'y'
I1023
s(dp18
g15
S'line'
p19
sS'x'
I272
sg17
I00
sS'y'
I1023
s(dp20
g15
S'line'
p21
sS'x'
I272
sg17
I00
sS'y'
I0
s(dp22
g15
S'line'
p23
sS'x'
I130
sg17
I00
sS'y'
I0
stp24
stp25
sS'components'
p26
(tsS'anchors'
p27
(tsss."
LayerCount: 2
Fore
SplineSet
797 1023 m 1
 959 1023 l 1
 578 656 l 1
 1018 0 l 1
 858 0 l 1
 485 570 l 1
 272 369 l 1
 272 0 l 1
 130 0 l 1
 130 1477 l 1
 271 1477 l 1
 271 516 l 1
 797 1023 l 1
EndSplineSet
EndChar

StartChar: kgreenlandic
Encoding: 288 312 146
Width: 1080
VWidth: 0
Flags: W
LayerCount: 2
Fore
SplineSet
807 1023 m 1
 969 1023 l 1
 609 624 l 1
 1028 0 l 1
 868 0 l 1
 516 538 l 1
 282 299 l 1
 282 0 l 1
 140 0 l 1
 140 1024 l 1
 281 1024 l 1
 281 446 l 1
 807 1023 l 1
EndSplineSet
EndChar

StartChar: l
Encoding: 108 108 147
Width: 413
VWidth: 0
Flags: HW
PickledData: "(dp1
S'com.typemytype.robofont.layerData'
p2
(dp3
S'back'
p4
(dp5
S'name'
p6
S'l'
sS'lib'
p7
(dp8
sS'unicodes'
p9
(tsS'width'
p10
I413
sS'contours'
p11
((dp12
S'points'
p13
((dp14
S'segmentType'
p15
S'line'
p16
sS'x'
F136
sS'smooth'
p17
I00
sS'y'
F1023
s(dp18
g15
S'line'
p19
sS'x'
F278
sg17
I00
sS'y'
F1023
s(dp20
g15
S'line'
p21
sS'x'
F278
sg17
I00
sS'y'
F0
s(dp22
g15
S'line'
p23
sS'x'
F136
sg17
I00
sS'y'
F0
stp24
stp25
sS'components'
p26
(tsS'anchors'
p27
(tsss."
LayerCount: 2
Fore
SplineSet
136 0 m 1
 136 1474 l 1
 278 1474 l 1
 278 0 l 1
 136 0 l 1
EndSplineSet
EndChar

StartChar: less
Encoding: 60 60 149
Width: 1051
VWidth: 0
Flags: W
LayerCount: 2
Fore
SplineSet
998 241 m 1
 998 103 l 1
 49 469 l 1
 49 595 l 1
 998 950 l 1
 998 798 l 1
 211 525 l 1
 998 241 l 1
EndSplineSet
EndChar

StartChar: lslash
Encoding: 290 322 150
Width: 421
VWidth: 0
Flags: W
LayerCount: 2
Fore
SplineSet
-6 672 m 1
 -6 807 l 1
 140 879 l 1
 140 1474 l 1
 283 1474 l 1
 283 949 l 1
 448 1024 l 1
 448 889 l 1
 283 814 l 1
 283 -1 l 1
 140 -1 l 1
 140 744 l 1
 -6 672 l 1
EndSplineSet
EndChar

StartChar: m
Encoding: 109 109 151
Width: 1662
VWidth: 0
Flags: W
PickledData: "(dp1
S'com.typemytype.robofont.layerData'
p2
(dp3
S'back'
p4
(dp5
S'name'
p6
S'm'
sS'lib'
p7
(dp8
sS'unicodes'
p9
(tsS'width'
p10
I1662
sS'contours'
p11
((dp12
S'points'
p13
((dp14
S'segmentType'
p15
S'line'
p16
sS'x'
I1399
sS'smooth'
p17
I00
sS'y'
I1023
s(dp18
g15
S'line'
p19
sS'x'
I1541
sg17
I00
sS'y'
I1023
s(dp20
g15
S'line'
p21
sS'x'
I1541
sg17
I00
sS'y'
I0
s(dp22
g15
S'line'
p23
sS'x'
I1399
sg17
I00
sS'y'
I0
stp24
stp25
sS'components'
p26
(tsS'anchors'
p27
(tsss."
LayerCount: 2
Fore
SplineSet
562 940 m 0
 380 940 267 757 267 583 c 2
 267 0 l 1
 125 0 l 1
 125 1023 l 1
 262 1023 l 1
 266 861 l 1
 346 998 474 1044 592 1044 c 0
 749 1044 842 961 878 832 c 1
 952 987 1112 1044 1235 1044 c 0
 1514 1044 1541 789 1541 576 c 2
 1541 0 l 1
 1399 0 l 1
 1399 607 l 2
 1399 802 1355 940 1198 940 c 0
 1022 940 903 761 903 591 c 2
 903 0 l 1
 761 0 l 1
 761 607 l 2
 761 805 716 940 562 940 c 0
EndSplineSet
EndChar

StartChar: macron
Encoding: 175 175 152
Width: 724
VWidth: 0
Flags: W
LayerCount: 2
Fore
SplineSet
364 1024 m 1
 364 1024 l 1
135 1219 m 1
 135 1329 l 1
 589 1329 l 1
 589 1219 l 1
 135 1219 l 1
362 1023 m 0
EndSplineSet
EndChar

StartChar: mu
Encoding: 291 956 153
Width: 1119
VWidth: 0
Flags: W
LayerCount: 2
Fore
SplineSet
842 436 m 2
 842 1023 l 1
 984 1023 l 1
 984 0 l 1
 847 0 l 1
 843 159 l 1
 721 -34 443 -86 282 57 c 1
 282 -194 l 1
 135 -194 l 1
 135 1023 l 1
 282 1023 l 1
 282 356 l 2
 282 189 335 87 506 87 c 0
 769 87 842 331 842 436 c 2
EndSplineSet
EndChar

StartChar: multiply
Encoding: 215 215 154
Width: 734
VWidth: 0
Flags: W
LayerCount: 2
Fore
SplineSet
190 203 m 1
 120 273 l 1
 296 449 l 1
 119 626 l 1
 191 698 l 1
 368 521 l 1
 544 697 l 1
 614 627 l 1
 438 451 l 1
 615 274 l 1
 543 202 l 1
 366 379 l 1
 190 203 l 1
EndSplineSet
EndChar

StartChar: n
Encoding: 110 110 155
Width: 1097
VWidth: 0
Flags: HW
PickledData: "(dp1
S'com.typemytype.robofont.layerData'
p2
(dp3
S'back'
p4
(dp5
S'name'
p6
S'n'
sS'lib'
p7
(dp8
sS'unicodes'
p9
(tsS'width'
p10
I1097
sS'contours'
p11
((dp12
S'points'
p13
((dp14
S'segmentType'
p15
S'line'
p16
sS'x'
I834
sS'smooth'
p17
I00
sS'y'
I1023
s(dp18
g15
S'line'
p19
sS'x'
I976
sg17
I00
sS'y'
I1023
s(dp20
g15
S'line'
p21
sS'x'
I976
sg17
I00
sS'y'
I0
s(dp22
g15
S'line'
p23
sS'x'
I834
sg17
I00
sS'y'
I0
stp24
stp25
sS'components'
p26
(tsS'anchors'
p27
(tsss."
LayerCount: 2
Back
SplineSet
126 0 m 5
 126 1023 l 5
 264 1023 l 5
 264 1023 264 829 264 830 c 4
 270 850 284 886 293 898 c 4
 383 1006 504 1044 622 1044 c 4
 945 1044 976 790 976 584 c 6
 976 0 l 5
 834 0 l 5
 834 603 l 6
 834 806 781 930 602 930 c 4
 277 930 268 627 268 496 c 6
 268 0 l 5
 126 0 l 5
EndSplineSet
Fore
SplineSet
126 0 m 1
 126 1023 l 1
 264 1023 l 1
 264 1023 263.677156178 829.053547747 264 830 c 0
 316.274812653 983.249375509 490.341129572 1044 622 1044 c 0
 945 1044 976 790 976 584 c 2
 976 0 l 1
 834 0 l 1
 834 603 l 2
 834 806 781 930 602 930 c 0
 277 930 268 627 268 496 c 2
 268 0 l 1
 126 0 l 1
EndSplineSet
EndChar

StartChar: nine
Encoding: 57 57 157
Width: 1228
VWidth: 0
Flags: HW
LayerCount: 2
Fore
SplineSet
926.740234375 643.479492188 m 1
 825.823242188 568.524414062 716.66015625 525 606.186523438 525 c 0
 353.54296875 525 134 681.65625 134 987 c 0
 134 1237.48535156 271.633789062 1492.04003906 601.53125 1492.04003906 c 0
 939.362304688 1492.04003906 1093 1213.20019531 1093 771 c 0
 1093 276.244140625 875.109375 -19 570.106445312 -19 c 0
 471.06640625 -19 361.37109375 11.4580078125 242.420898438 74.822265625 c 1
 283.227539062 186.358398438 l 1
 386.87109375 129.4375 479.482421875 99 565.23046875 99 c 0
 769.719726562 99 905.438476562 279.108398438 926.740234375 643.479492188 c 1
932.873046875 772.951171875 m 1
 933.916992188 796.985351562 934 840.837890625 934 864 c 0
 934 1118.08300781 862.569335938 1374 592.53515625 1374 c 0
 426.858398438 1374 285 1233.42871094 285 991 c 0
 285 738.77734375 430.079101562 644 608.13671875 644 c 0
 714.682617188 644 835.931640625 698.232421875 932.873046875 772.951171875 c 1
EndSplineSet
EndChar

StartChar: numbersign
Encoding: 35 35 159
Width: 1221
VWidth: 0
Flags: W
LayerCount: 2
Fore
SplineSet
51 551 m 1
 80 649 l 1
 1106 649 l 1
 1077 551 l 1
 51 551 l 1
1041 1464 m 1
 740 1 l 1
 606 0 l 1
 902 1463 l 1
 1041 1464 l 1
278 1 m 1
 144 0 l 1
 440 1463 l 1
 579 1464 l 1
 278 1 l 1
149 999 m 1
 1175 999 l 1
 1146 901 l 1
 120 901 l 1
 149 999 l 1
204 0 m 1
 204 0 l 1
204 0 m 1
 204 0 l 1
619 0 m 1
 619 0 l 1
619 0 m 1
 619 0 l 1
619 0 m 1
 619 0 l 1
619 0 m 1
 619 0 l 1
EndSplineSet
EndChar

StartChar: o
Encoding: 111 111 160
Width: 1068
VWidth: 0
Flags: HW
PickledData: "(dp1
S'com.typemytype.robofont.layerData'
p2
(dp3
s."
LayerCount: 2
Fore
SplineSet
535 1044 m 0
 786 1044 972 873 972 513 c 0
 972 162 799 -24 534 -24 c 0
 269 -24 96 161 96 510 c 0
 96 872 281 1044 535 1044 c 0
534 940 m 0
 300 940 239 720 239 513 c 0
 239 302 300 81 535 81 c 0
 768 81 830 301 830 511 c 0
 830 720 766 940 534 940 c 0
EndSplineSet
EndChar

StartChar: oe
Encoding: 293 339 164
Width: 1878
VWidth: 0
Flags: HW
LayerCount: 2
Fore
SplineSet
884 510 m 0
 884 721 822 940 591 940 c 0
 358 940 299 719 299 512 c 0
 299 302 359 80 592 80 c 0
 824 80 884 299 884 510 c 0
1315 942 m 0
 1133 942 1038 792 1028 592 c 1
 1589 592 l 1
 1587 802 1506 942 1315 942 c 0
1319 1044 m 0
 1603 1043 1726 828 1726 558 c 1
 1725 549 1724 516 1722 500 c 1
 1026 500 l 1
 1026 289 1095 80 1330 80 c 0
 1483 80 1565 203 1608 317 c 1
 1704 276 l 1
 1651 79 1499 -21 1332 -24 c 1
 1141 -24 1023 65 957 199 c 1
 885 51 755 -24 591 -24 c 0
 328 -24 156 162 156 511 c 0
 156 872 340 1044 593 1044 c 0
 750 1044 885 971 959 819 c 1
 1029 960 1152 1044 1319 1044 c 0
EndSplineSet
EndChar

StartChar: ogonek
Encoding: 294 731 165
Width: 462
VWidth: 0
Flags: W
LayerCount: 2
Fore
SplineSet
276 0 m 1
 276 0 l 1
315 0 m 1
 281 -74 238 -161 238 -219 c 0
 238 -257 257 -283 311 -283 c 0
 321 -283 333 -281 346 -278 c 1
 346 -361 l 1
 322 -367 300 -369 281 -369 c 0
 175 -369 117 -309 117 -241 c 0
 117 -152 197 -34 244 0 c 1
 315 0 l 1
346 10 m 0
EndSplineSet
EndChar

StartChar: one
Encoding: 49 49 167
Width: 546
VWidth: 0
Flags: HW
LayerCount: 2
Fore
SplineSet
263 1328 m 1
 263 0 l 1
 409 0 l 1
 409 1464 l 1
 280 1465 l 1
 103 1374 l 1
 144 1269 l 1
 263 1328 l 1
EndSplineSet
EndChar

StartChar: oslash
Encoding: 248 248 168
Width: 1068
VWidth: 0
Flags: HW
LayerCount: 2
Fore
SplineSet
254 -197 m 5
 181 -159 l 5
 834 1216 l 5
 906 1178 l 5
 254 -197 l 5
EndSplineSet
Refer: 160 111 N 1 0 0 1 0 0 2
EndChar

StartChar: p
Encoding: 112 112 170
Width: 1057
VWidth: 0
Flags: W
PickledData: "(dp1
S'com.typemytype.robofont.layerData'
p2
(dp3
S'back'
p4
(dp5
S'name'
p6
S'p'
sS'lib'
p7
(dp8
sS'unicodes'
p9
(tsS'width'
p10
I1057
sS'contours'
p11
((dp12
S'points'
p13
((dp14
S'segmentType'
p15
S'line'
p16
sS'x'
I125
sS'smooth'
p17
I00
sS'y'
I1023
s(dp18
g15
S'line'
p19
sS'x'
I267
sg17
I00
sS'y'
I1023
s(dp20
g15
S'line'
p21
sS'x'
I267
sg17
I00
sS'y'
I0
s(dp22
g15
S'line'
p23
sS'x'
I125
sg17
I00
sS'y'
I0
stp24
stp25
sS'components'
p26
(tsS'anchors'
p27
(tsss."
LayerCount: 2
Fore
SplineSet
257 858 m 1
 320 976 418 1044 567 1044 c 0
 842 1044 961 812 961 520 c 0
 961 217 840 -21 574 -24 c 1
 435 -24 325 40 266 154 c 1
 267 110 267 65 267 21 c 2
 267 -350 l 1
 125 -350 l 1
 125 1023 l 1
 247 1023 l 1
 257 858 l 1
552 940 m 0
 300 940 264 737 264 519 c 0
 264 294 321 81 553 81 c 0
 718 81 816 243 816 521 c 0
 816 767 720 940 552 940 c 0
EndSplineSet
EndChar

StartChar: paragraph
Encoding: 182 182 171
Width: 1170
VWidth: 0
Flags: W
LayerCount: 2
Fore
SplineSet
547 0 m 1
 547 669 l 1
 218 699 53 797 53 1076 c 0
 53 1355 221 1464 775 1464 c 2
 1126 1464 l 1
 1126 1349 l 1
 956 1349 l 1
 956 0 l 1
 806 0 l 1
 806 657 l 1
 770 657 729 658 697 659 c 1
 697 0 l 1
 547 0 l 1
EndSplineSet
EndChar

StartChar: parenleft
Encoding: 40 40 172
Width: 602
VWidth: 0
Flags: W
LayerCount: 2
Fore
SplineSet
523 1487 m 1
 560 1392 l 1
 290 1316 205 1027 205 613 c 0
 205 198 291 -91 560 -163 c 1
 523 -260 l 1
 231 -190 54 74 54 613 c 0
 54 1152 232 1418 523 1487 c 1
EndSplineSet
EndChar

StartChar: parenright
Encoding: 41 41 173
Width: 603
VWidth: 0
Flags: W
LayerCount: 2
Fore
SplineSet
43 1392 m 1
 79 1487 l 1
 370 1418 549 1152 549 613 c 0
 549 74 372 -190 79 -260 c 1
 43 -163 l 1
 311 -91 396 198 396 613 c 0
 396 1027 311 1316 43 1392 c 1
EndSplineSet
EndChar

StartChar: percent
Encoding: 37 37 174
Width: 1677
VWidth: 0
Flags: W
LayerCount: 2
Fore
SplineSet
357 1296 m 0
 558 1296 660 1122 660 950 c 0
 660 776 558 604 357 604 c 0
 152 604 50 775 50 948 c 0
 50 1121 154 1296 357 1296 c 0
357 1204 m 0
 225 1204 161 1079 161 953 c 0
 161 825 227 698 357 698 c 0
 484 698 548 825 548 952 c 0
 548 1078 485 1204 357 1204 c 0
394 -38 m 1
 307 21 l 1
 1273 1358 l 1
 1359 1301 l 1
 394 -38 l 1
1325 692 m 0
 1527 692 1628 518 1628 346 c 0
 1628 172 1527 0 1325 0 c 0
 1120 0 1019 171 1019 344 c 0
 1019 517 1122 692 1325 692 c 0
1325 599 m 0
 1194 599 1129 474 1129 349 c 0
 1129 221 1196 93 1325 93 c 0
 1452 93 1517 221 1517 348 c 0
 1517 473 1453 599 1325 599 c 0
EndSplineSet
EndChar

StartChar: period
Encoding: 46 46 175
Width: 434
VWidth: 0
Flags: W
LayerCount: 2
Fore
SplineSet
135 215 m 1
 299 215 l 1
 299 0 l 1
 135 0 l 1
 135 215 l 1
EndSplineSet
EndChar

StartChar: periodcentered
Encoding: 183 183 176
Width: 434
VWidth: 0
Flags: W
LayerCount: 2
Fore
SplineSet
135 758 m 1
 299 758 l 1
 299 543 l 1
 135 543 l 1
 135 758 l 1
EndSplineSet
EndChar

StartChar: plus
Encoding: 43 43 177
Width: 860
VWidth: 0
Flags: W
LayerCount: 2
Fore
SplineSet
130 400 m 1
 130 500 l 1
 379 500 l 1
 379 750 l 1
 481 750 l 1
 481 500 l 1
 730 500 l 1
 730 400 l 1
 481 400 l 1
 481 150 l 1
 379 150 l 1
 379 400 l 1
 130 400 l 1
EndSplineSet
EndChar

StartChar: q
Encoding: 113 113 178
Width: 1055
VWidth: 0
Flags: W
PickledData: "(dp1
S'com.typemytype.robofont.layerData'
p2
(dp3
s."
LayerCount: 2
Fore
SplineSet
482 1044 m 0
 618 1044 738 997 798 862 c 1
 813 1023 l 1
 930 1023 l 1
 930 -350 l 1
 787 -350 l 1
 787 12 l 1
 787 155 l 1
 730 39 621 -24 480 -24 c 0
 220 -24 96 212 96 518 c 0
 96 809 220 1044 482 1044 c 0
503 940 m 0
 335 940 241 763 241 522 c 0
 241 244 337 81 499 81 c 0
 740 81 787 294 787 501 c 0
 787 736 744 940 503 940 c 0
EndSplineSet
EndChar

StartChar: question
Encoding: 63 63 179
Width: 1102
VWidth: 0
Flags: W
LayerCount: 2
Fore
SplineSet
558 1380 m 0
 316 1380 192 1214 152 1177 c 1
 77 1254 l 1
 198 1427 390 1491 552 1491 c 0
 862 1491 1009 1310 1009 1102 c 0
 1009 875 864 809 701 637 c 1
 618 554 564 461 564 298 c 1
 441 298 l 1
 441 599 582 700 717 812 c 0
 816 894 872 993 872 1101 c 0
 872 1248 785 1380 558 1380 c 0
418 215 m 1
 582 215 l 1
 582 0 l 1
 418 0 l 1
 418 215 l 1
EndSplineSet
EndChar

StartChar: quotedbl
Encoding: 34 34 181
Width: 650
VWidth: 0
Flags: W
LayerCount: 2
Fore
SplineSet
527 1464 m 1
 476 1000 l 1
 425 1000 l 1
 373 1464 l 1
 527 1464 l 1
123 1464 m 1
 277 1464 l 1
 226 1000 l 1
 175 1000 l 1
 123 1464 l 1
EndSplineSet
EndChar

StartChar: quotedblbase
Encoding: 295 8222 182
Width: 744
VWidth: 0
Flags: W
LayerCount: 2
Fore
SplineSet
436 -71 m 1
 454 93 l 1
 628 93 l 1
 624 -87 627 -269 467 -382 c 1
 418 -319 l 1
 443 -296 494 -229 497 -109 c 1
 477 -97 457 -83 436 -71 c 1
128 -71 m 1
 146 93 l 1
 320 93 l 1
 316 -87 319 -269 159 -382 c 1
 110 -319 l 1
 135 -296 186 -229 189 -109 c 1
 169 -97 149 -83 128 -71 c 1
EndSplineSet
EndChar

StartChar: quotedblleft
Encoding: 296 8220 183
Width: 744
VWidth: 0
Flags: W
LayerCount: 2
Fore
SplineSet
579 1473 m 1
 628 1410 l 1
 603 1387 550 1319 547 1196 c 1
 615 1183 l 1
 613 1120 611 1058 610 997 c 1
 417 995 l 1
 418 1084 l 1
 423 1242 445 1378 579 1473 c 1
285 1473 m 1
 334 1410 l 1
 309 1387 256 1319 253 1197 c 1
 322 1183 l 1
 316 997 l 1
 123 995 l 1
 125 1084 l 2
 128 1240 151 1379 285 1473 c 1
EndSplineSet
EndChar

StartChar: quotedblright
Encoding: 297 8221 184
Width: 729
VWidth: 0
Flags: W
LayerCount: 2
Fore
SplineSet
420 1302 m 1
 438 1467 l 1
 613 1466 l 1
 608 1287 611 1103 452 991 c 1
 401 1054 l 1
 426 1075 478 1142 481 1263 c 1
 460 1276 441 1291 420 1302 c 1
128 1302 m 1
 146 1467 l 1
 321 1466 l 1
 317 1286 319 1104 159 991 c 1
 109 1054 l 1
 135 1077 186 1144 189 1264 c 1
 169 1276 149 1290 128 1302 c 1
EndSplineSet
EndChar

StartChar: quoteleft
Encoding: 298 8216 185
Width: 461
VWidth: 0
Flags: HW
LayerCount: 2
Fore
SplineSet
265 1469 m 1
 287 1457 310 1444 334 1431 c 1
 309.258226407 1367.37829647 256 1297.97392225 256 1200 c 5
 330 1187 l 1
 330 1122 330 1058 331 993 c 1
 133 992 l 1
 129 1089 l 1
 129 1235 148 1371 265 1469 c 1
EndSplineSet
EndChar

StartChar: quoteright
Encoding: 299 8217 186
Width: 438
VWidth: 0
Flags: W
LayerCount: 2
Fore
SplineSet
129 1302 m 1
 147 1467 l 1
 321 1466 l 1
 317 1286 320 1104 160 991 c 1
 111 1054 l 1
 136 1077 187 1144 190 1264 c 1
 170 1276 150 1290 129 1302 c 1
EndSplineSet
EndChar

StartChar: quotesinglbase
Encoding: 300 8218 187
Width: 436
VWidth: 0
Flags: W
LayerCount: 2
Fore
SplineSet
128 -71 m 1
 146 93 l 1
 320 93 l 1
 316 -87 319 -269 159 -382 c 1
 110 -319 l 1
 135 -296 186 -229 189 -109 c 1
 169 -97 149 -83 128 -71 c 1
EndSplineSet
EndChar

StartChar: r
Encoding: 114 114 188
Width: 611
VWidth: 0
Flags: HW
PickledData: "(dp1
S'com.typemytype.robofont.layerData'
p2
(dp3
s."
LayerCount: 2
Fore
SplineSet
262 1023 m 1
 265 855 l 1
 344 998 457 1042 569 1042 c 1
 569 913 l 1
 340 913 267 716 267 586 c 2
 267 0 l 1
 125 0 l 1
 125 1023 l 1
 262 1023 l 1
EndSplineSet
EndChar

StartChar: registered
Encoding: 174 174 191
Width: 1702
VWidth: 0
Flags: W
LayerCount: 2
Fore
SplineSet
1579 774 m 0
 1579 375 1251 47 850 47 c 0
 451 47 123 375 123 774 c 0
 123 1175 451 1503 850 1503 c 0
 1251 1503 1579 1175 1579 774 c 0
664 1184 m 1
 664 846 l 1
 849 846 l 2
 967 846 1092 864 1092 1015 c 0
 1092 1169 960 1184 848 1184 c 2
 664 1184 l 1
857 1248 m 2
 1071 1248 1179 1173 1179 1017 c 0
 1179 900 1115 829 1000 793 c 1
 1023 720 1073 630 1111 547 c 2
 1186 379 l 1
 1099 379 l 1
 916 779 l 1
 661 779 l 1
 661 381 l 1
 578 381 l 1
 578 1248 l 1
 857 1248 l 2
849 100 m 0
 1220 100 1523 403 1523 773 c 0
 1523 1144 1220 1447 849 1447 c 0
 479 1447 176 1144 176 773 c 0
 176 403 479 100 849 100 c 0
784 0 m 1
 784 0 l 1
859 1436 m 1
 859 1436 l 1
EndSplineSet
EndChar

StartChar: ring
Encoding: 303 730 192
Width: 728
VWidth: 0
Flags: HW
LayerCount: 2
Fore
SplineSet
601 1377 m 0
 601 1263 522 1150 364 1150 c 0
 206 1150 127 1263 127 1377 c 0
 127 1489 206 1602 364 1602 c 0
 522 1602 601 1489 601 1377 c 0
241 1376 m 0
 241 1313 282 1249 364 1249 c 0
 446 1249 487 1313 487 1376 c 0
 487 1439 446 1502 364 1502 c 0
 282 1502 241 1439 241 1376 c 0
EndSplineSet
EndChar

StartChar: s
Encoding: 115 115 193
Width: 976
VWidth: 0
Flags: HW
LayerCount: 2
Fore
SplineSet
122 761 m 0
 122 946 293 1044 512 1044 c 0
 689 1044 796 998 880 851 c 1
 880 851 778 788 778 787 c 1
 716 902 652 937 520 937 c 0
 350 937 251 873 251 747 c 0
 251 632 386 607 533 580 c 0
 755 539 889 455 889 272 c 0
 889 76 748.385 -24 477 -24 c 0
 313 -24 117 45 79 269 c 1
 184 310 l 1
 228 155 313 83 490 83 c 0
 632 83 761 129 761 268 c 0
 761 393.072 688 422 440 474 c 0
 271 510 122 559.878 122 761 c 0
EndSplineSet
EndChar

StartChar: semicolon
Encoding: 59 59 194
Width: 478
VWidth: 0
Flags: HW
LayerCount: 2
Fore
SplineSet
155 235 m 1
 330 235 l 1
 329 157 l 1
 324 11 299 -122 164 -200 c 1
 144 -126 l 1
 157 -119 206 -66 209 40 c 1
 203 57 153 50 147 73 c 1
 150 128 153 183 155 235 c 1
153 846 m 1
 208 851 265 854 325 854 c 1
 331 784 333 712 333 637 c 1
 278 632 220 630 160 630 c 1
 155 699 153 771 153 846 c 1
EndSplineSet
EndChar

StartChar: seven
Encoding: 55 55 195
Width: 992
VWidth: 0
Flags: HW
LayerCount: 2
Fore
SplineSet
134 909 m 1
 144 1023 l 1
 856 1023 l 1
 855 971 l 1
 387 -235 l 1
 258 -177 l 1
 691 910 l 1
 134 909 l 1
EndSplineSet
EndChar

StartChar: six
Encoding: 54 54 196
Width: 1228
VWidth: 0
Flags: HW
LayerCount: 2
Fore
SplineSet
303.244140625 827.73046875 m 1
 407.133789062 902.647460938 521.08984375 946 634.540039062 946 c 0
 881.34375 946 1096 789.455078125 1096 484 c 0
 1096 233.844726562 932.881835938 -24 635.514648438 -24 c 0
 293.7734375 -24 137 252.884765625 137 700 c 0
 137 1201.43261719 351.896484375 1491 654.04296875 1491 c 0
 752.100585938 1491 859.571289062 1460.2421875 975.596679688 1396.22851562 c 1
 934.799804688 1284.71386719 l 1
 832.038085938 1342.72753906 737.674804688 1372 655.9921875 1372 c 0
 452.62890625 1372 325.53515625 1194.59960938 303.244140625 827.73046875 c 1
297.12890625 698.103515625 m 1
 296.087890625 674.051757812 296 630.185546875 296 607 c 0
 296 350.450195312 366.41796875 92 636.490234375 92 c 0
 802.150390625 92 945 234.3828125 945 480 c 0
 945 732.048828125 804.971679688 827 633.565429688 827 c 0
 523.114257812 827 397.091796875 772.796875 297.12890625 698.103515625 c 1
EndSplineSet
EndChar

StartChar: slash
Encoding: 47 47 197
Width: 592
VWidth: 0
Flags: W
LayerCount: 2
Fore
SplineSet
152 -35 m 1
 47 -5 l 1
 444 1464 l 1
 548 1434 l 1
 152 -35 l 1
EndSplineSet
EndChar

StartChar: t
Encoding: 116 116 199
Width: 696
VWidth: 0
Flags: HW
LayerCount: 2
Fore
SplineSet
610 116 m 1
 640 24 l 1
 593 -6 530 -24 464 -24 c 0
 288 -24 213 84 213 325 c 2
 213 924 l 1
 60 924 l 1
 60 1023 l 1
 222 1023 l 1
 222 1370 l 1
 355 1387 l 1
 355 1023 l 1
 579 1023 l 1
 579 924 l 1
 355 924 l 1
 355 264 l 2
 355 135 413 86 493 86 c 0
 529 86 569 98 610 116 c 1
EndSplineSet
EndChar

StartChar: thorn
Encoding: 254 254 200
Width: 1095
VWidth: 0
Flags: W
LayerCount: 2
Fore
SplineSet
281 1464 m 1
 281 874 l 1
 344 982 440 1044 582 1044 c 0
 857 1044 976 812 976 520 c 0
 976 217 855 -21 589 -24 c 1
 450 -24 340 40 281 154 c 1
 282 110 282 65 282 21 c 2
 282 -378 l 1
 140 -394 l 1
 140 1464 l 1
 281 1464 l 1
831 521 m 0
 831 810 702 943 568 943 c 0
 427 943 282 793 282 519 c 0
 282 294 336 81 568 81 c 0
 733 81 831 243 831 521 c 0
EndSplineSet
EndChar

StartChar: three
Encoding: 51 51 201
Width: 1133
VWidth: 0
Flags: HW
LayerCount: 2
Fore
SplineSet
720.012695312 812.572265625 m 1
 920.12890625 744.243164062 1014.43847656 581.38671875 1014.43847656 403 c 0
 1014.43847656 195.55859375 855.219726562 -24.013671875 561.509765625 -24.013671875 c 0
 367.606445312 -24.013671875 170.759765625 69.720703125 110 317.052734375 c 1
 229.51171875 358.165039062 l 1
 285.229492188 184.9453125 394.370117188 94 549.62109375 94 c 0
 759.288085938 94 865.438476562 244.557617188 865.438476562 396 c 0
 865.438476562 573.07421875 755.731445312 751 548.635742188 751 c 0
 519.177734375 751 488.543945312 748.03515625 459.952148438 743.518554688 c 1
 460.887695312 864.040039062 l 1
 711.428710938 868.420898438 800.438476562 1005.52734375 800.438476562 1140 c 0
 800.438476562 1260.85351562 722.870117188 1381 556.521484375 1381 c 0
 444.501953125 1381 325.284179688 1313.51367188 261.251953125 1175.35058594 c 1
 153.094726562 1239.20117188 l 1
 214.64453125 1408.015625 379.838867188 1493 549.62109375 1493 c 0
 799.915039062 1493 943.438476562 1317.83203125 943.438476562 1137 c 0
 943.438476562 1000.4296875 864.703125 879.25 720.012695312 812.572265625 c 1
EndSplineSet
EndChar

StartChar: tilde
Encoding: 304 732 202
Width: 798
VWidth: 0
Flags: HW
LayerCount: 2
Fore
SplineSet
223 1200 m 1
 127 1200 l 1
 125 1215 125 1229 125 1241 c 0
 125 1370 196 1391 253 1391 c 0
 331 1391 477 1299 537 1299 c 0
 560 1299 576 1336 576 1395 c 1
 673 1395 l 1
 674 1383 675 1371 675 1360 c 0
 675 1239 598 1202 540 1202 c 0
 446 1202 331 1288 273 1288 c 0
 252 1288 223 1262 223 1200 c 1
EndSplineSet
EndChar

StartChar: trademark
Encoding: 305 8482 203
Width: 1847
VWidth: 0
Flags: W
LayerCount: 2
Fore
SplineSet
116 1370 m 1
 116 1465 l 1
 757 1465 l 1
 757 1370 l 1
 492 1370 l 1
 492 616 l 1
 378 616 l 1
 378 1370 l 1
 116 1370 l 1
938 616 m 1
 938 1465 l 1
 1081 1465 l 1
 1331 876 l 1
 1415 1072 1503 1268 1587 1464 c 1
 1718 1464 l 1
 1718 616 l 1
 1614 616 l 1
 1614 1267 l 1
 1373 732 l 1
 1280 732 l 1
 1046 1270 l 1
 1046 616 l 1
 938 616 l 1
EndSplineSet
EndChar

StartChar: two
Encoding: 50 50 204
Width: 1230
VWidth: 0
Flags: HW
LayerCount: 2
Fore
SplineSet
616.416992188 1492 m 0
 863.061523438 1492 1099.71777344 1354.2734375 1099.71777344 1051.45507812 c 0
 1099.71777344 590.15693576 449.182617188 424.890889241 356.654296875 121 c 1
 1079.05957031 121 l 1
 1079.05957031 0 l 1
 152.359375 0 l 1
 168.465820312 480.7890625 939.59765625 626.900390625 939.59765625 1061.72265625 c 1
 939.59765625 1263.47167969 791.787109375 1370.28710938 632.432617188 1370.28710938 c 0
 428.6484375 1370.28710938 328.149414062 1264.87011719 244.716796875 1082.89941406 c 1
 116 1134.93945312 l 1
 206.674804688 1391.73144531 391.067382812 1492 616.416992188 1492 c 0
EndSplineSet
EndChar

StartChar: u
Encoding: 117 117 205
Width: 1122
VWidth: 0
Flags: HW
PickledData: "(dp1
S'com.typemytype.robofont.layerData'
p2
(dp3
s."
LayerCount: 2
Fore
SplineSet
828 436 m 2
 828 1023 l 1
 970 1023 l 1
 970 0 l 1
 833 0 l 1
 829 159 l 1
 741 21 604 -24 467 -24 c 0
 152 -24 121 235 121 436 c 2
 121 1023 l 1
 268 1023 l 1
 268 406 l 2
 268 209 321 87 492 87 c 0
 755 87 828 331 828 436 c 2
EndSplineSet
EndChar

StartChar: underscore
Encoding: 95 95 211
Width: 870
VWidth: 0
Flags: W
LayerCount: 2
Fore
SplineSet
135 -1 m 1
 735 -1 l 1
 735 -49 l 1
 135 -49 l 1
 135 -1 l 1
EndSplineSet
EndChar

StartChar: uni030F
Encoding: 308 783 213
Width: 744
VWidth: 0
Flags: HW
LayerCount: 2
Fore
SplineSet
61 1492 m 1
 256 1492 l 1
 381 1172 l 1
 289 1172 l 1
 61 1492 l 1
359 1492 m 1
 554 1492 l 1
 679 1172 l 1
 587 1172 l 1
 359 1492 l 1
EndSplineSet
EndChar

StartChar: uni0311
Encoding: 309 785 214
Width: 805
VWidth: 0
Flags: HW
LayerCount: 2
Fore
SplineSet
402 1438 m 0
 539 1438 674 1353 678 1183 c 1
 552 1183 l 1
 549 1276 476 1322 402 1322 c 0
 328 1322 255 1276 252 1183 c 1
 126 1183 l 1
 130 1353 265 1438 402 1438 c 0
EndSplineSet
EndChar

StartChar: uni0326
Encoding: 310 806 215
Width: 409
VWidth: 0
Flags: HW
LayerCount: 2
Fore
SplineSet
210 -168 m 1
 130 -168 l 1
 130 0 l 1
 280 0 l 1
 280 -160 l 2
 280 -279.492445677 233.010431489 -366.059328628 190.057796077 -366.059328628 c 0
 143 -344 l 1
 200.670886076 -301.139896373 209.151898734 -219.067357513 210 -168 c 1
EndSplineSet
EndChar

StartChar: v
Encoding: 118 118 217
Width: 1100
VWidth: 0
Flags: HW
LayerCount: 2
Fore
SplineSet
884 1023 m 1
 1022 1023 l 1
 607 0 l 1
 481 0 l 1
 78 1023 l 1
 230 1023 l 1
 551 162 l 1
 884 1023 l 1
EndSplineSet
EndChar

StartChar: w
Encoding: 119 119 218
Width: 1600
VWidth: 0
Flags: HW
LayerCount: 2
Fore
SplineSet
409 0 m 1
 79 1023 l 1
 231 1023 l 1
 480 177 l 5
 591 515 l 2
 758 1023 l 1
 852 1023 l 1
 1009 516 l 2
 1114 178 l 5
 1381 1023 l 1
 1521 1023 l 1
 1173 0 l 1
 1046 0 l 1
 800 800 l 1
 536 0 l 1
 409 0 l 1
EndSplineSet
EndChar

StartChar: x
Encoding: 120 120 219
Width: 1056
VWidth: 0
Flags: W
LayerCount: 2
Fore
SplineSet
450 514 m 1
 79 1023 l 1
 233 1023 l 1
 527 619 l 1
 821 1023 l 1
 971 1023 l 1
 603 518 l 1
 983 0 l 1
 829 0 l 1
 526 412 l 1
 226 0 l 1
 76 0 l 1
 450 514 l 1
EndSplineSet
EndChar

StartChar: y
Encoding: 121 121 220
Width: 1069
VWidth: 0
Flags: HW
LayerCount: 2
Fore
SplineSet
466 64 m 1
 74 1023 l 1
 223 1023 l 1
 327 754 439 460 540 208 c 1
 640 467 737 722 855 1023 c 1
 995 1023 l 1
 873 715 747 405 624 97 c 0
 517 -171 437 -320 209 -320 c 0
 176 -320 141 -316 104 -306 c 1
 119 -211 l 1
 152 -216 181 -218 207 -218 c 0
 331 -218 390 -156 443 -3 c 2
 466 64 l 1
EndSplineSet
EndChar

StartChar: yen
Encoding: 165 165 223
Width: 1358
VWidth: 0
Flags: W
LayerCount: 2
Fore
SplineSet
348 544 m 1
 348 630 l 1
 559 630 l 1
 94 1436 l 1
 252 1436 l 1
 680 682 l 1
 1107 1436 l 1
 1264 1436 l 1
 799 630 l 1
 1002 630 l 1
 1002 544 l 1
 752 544 l 1
 752 420 l 1
 1002 420 l 1
 1002 334 l 1
 752 334 l 1
 752 0 l 1
 606 0 l 1
 606 334 l 1
 348 334 l 1
 348 420 l 1
 606 420 l 1
 606 544 l 1
 348 544 l 1
EndSplineSet
EndChar

StartChar: z
Encoding: 122 122 224
Width: 984
VWidth: 0
Flags: HW
LayerCount: 2
Fore
SplineSet
141 919 m 1
 141 1023 l 1
 887 1023 l 1
 887 928 l 1
 258 103 l 1
 885 103 l 1
 885 0 l 1
 88 0 l 1
 88 94 l 1
 718 919 l 1
 141 919 l 1
EndSplineSet
EndChar

StartChar: zero
Encoding: 48 48 225
Width: 1127
VWidth: 0
Flags: W
LayerCount: 2
Fore
SplineSet
564 1051 m 0
 815 1051 1001 883 1001 523 c 0
 1001 165 828 -24 563 -24 c 0
 298 -24 125 164 125 520 c 0
 125 882 310 1051 564 1051 c 0
563 947 m 0
 329 947 268 730 268 523 c 0
 268 307 329 81 564 81 c 0
 797 81 859 306 859 521 c 0
 859 730 795 947 563 947 c 0
EndSplineSet
EndChar

StartChar: Hbar
Encoding: 376 294 290
Width: 1457
VWidth: 0
Flags: HW
LayerCount: 2
Fore
SplineSet
1164 836 m 1
 1164 1464 l 1
 1309 1464 l 1
 1309 0 l 1
 1164 0 l 1
 1164 720 l 1
 294 720 l 1
 294 0 l 1
 148 0 l 1
 148 1464 l 1
 294 1464 l 1
 294 836 l 1
 1164 836 l 1
EndSplineSet
EndChar

StartChar: dcroat
Encoding: 378 273 292
Width: 1024
VWidth: 0
Flags: HW
LayerCount: 2
Fore
SplineSet
504.5 1196.20019531 m 1
 504.5 1282.20019531 l 1
 1024 1282.20019531 l 1
 1024 1196.20019531 l 1
 504.5 1196.20019531 l 1
96 500 m 0
 96 832 230 1044 484 1044 c 0
 629 1044 748 986 794 863 c 1
 794 1474 l 1
 937 1474 l 1
 937 0 l 1
 823 0 l 1
 804 172 l 1
 752 51 629 -24 488 -24 c 0
 239 -24 96 188 96 500 c 0
506 81 m 0
 636 81 800 127 800 499 c 0
 800 748 736 940 504 940 c 0
 332 940 242 765 242 499 c 0
 242 262 336 81 506 81 c 0
EndSplineSet
EndChar

StartChar: uniFB01
Encoding: 379 64257 293
Width: 1071
VWidth: 0
Flags: H
LayerCount: 2
Fore
SplineSet
793 1242 m 1
 793 1421 l 1
 934 1421 l 1
 934 1242 l 1
 793 1242 l 1
468 1365 m 0
 368 1365 367 1275 367 1137 c 2
 367 1023 l 1
 937 1023 l 1
 937 0 l 1
 795 0 l 1
 795 917 l 1
 367 917 l 1
 367 -1 l 1
 225 -1 l 1
 225 917 l 1
 52 917 l 1
 52 1023 l 1
 225 1023 l 1
 225 1140 l 2
 225 1361 284 1471 459 1471 c 0
 517 1471 571 1454 615 1430 c 1
 581 1338 l 1
 541 1353 500 1365 468 1365 c 0
EndSplineSet
EndChar

StartChar: uniFB02
Encoding: 380 64258 294
Width: 1072
VWidth: 0
Flags: H
LayerCount: 2
Fore
SplineSet
468 1365 m 0
 368 1365 367 1275 367 1137 c 2
 367 1023 l 1
 795 1023 l 1
 795 1474 l 1
 937 1474 l 1
 937 0 l 1
 795 0 l 1
 795 917 l 1
 367 917 l 1
 367 -1 l 1
 225 -1 l 1
 225 917 l 1
 52 917 l 1
 52 1023 l 1
 225 1023 l 1
 225 1140 l 2
 225 1361 284 1471 459 1471 c 0
 517 1471 571 1454 615 1430 c 1
 581 1338 l 1
 541 1353 500 1365 468 1365 c 0
EndSplineSet
EndChar

StartChar: guilsinglleft
Encoding: 381 8249 295
Width: 946
VWidth: 0
Flags: HW
LayerCount: 2
Fore
SplineSet
894 251 m 1
 449 552 l 1
 449 749 l 1
 894 1050 l 1
 894 909 l 1
 547 650 l 1
 894 393 l 1
 894 251 l 1
51 552 m 1
 51 749 l 1
 496 1050 l 1
 496 909 l 1
 149 650 l 1
 496 393 l 1
 496 251 l 1
 51 552 l 1
520 1260 m 1
 520 1260 l 1
EndSplineSet
EndChar

StartChar: quotesingle
Encoding: 39 39 296
Width: 436
VWidth: 0
Flags: HW
LayerCount: 2
Fore
SplineSet
128 1476 m 1
 146 1640 l 1
 320 1640 l 1
 316 1460 319 1278 159 1165 c 1
 110 1228 l 1
 135 1251 186 1318 189 1438 c 1
 169 1450 149 1464 128 1476 c 1
EndSplineSet
EndChar

StartChar: endash
Encoding: 383 8211 303
Width: 1024
VWidth: 0
Flags: HW
LayerCount: 2
Fore
SplineSet
135 334 m 5
 135 420 l 5
 889 420 l 5
 889 334 l 5
 135 334 l 5
EndSplineSet
EndChar

StartChar: emdash
Encoding: 384 8212 304
Width: 2048
VWidth: 0
Flags: HW
LayerCount: 2
Fore
SplineSet
135 334 m 1
 135 420 l 1
 1913 420 l 1
 1913 334 l 1
 135 334 l 1
EndSplineSet
EndChar

StartChar: sterling
Encoding: 163 163 305
Width: 1168
VWidth: 0
Flags: HW
LayerCount: 2
Fore
SplineSet
227.07421875 807.599609375 m 1
 227.07421875 1212.3671875 304.610351562 1491.25292969 658.7109375 1491.25292969 c 0
 874.541015625 1491.25292969 1040.06738281 1380.53320312 1103 1102 c 1
 969 1071 l 1
 932.805664062 1239.9453125 848.446289062 1374.56445312 664.211914062 1374.56445312 c 0
 405.4296875 1374.56445312 372.836914062 1163.9995991 372.836914062 807.599609375 c 1
 709.5 807.599609375 l 1
 709.5 694.599609375 l 1
 366.444335938 694.599609375 l 1
 366.791015625 439.5859375 l 0
 366.791015625 335.25390625 351.884943354 269.702148438 272 113 c 1
 272 113 564.427734375 224.497070312 661.263671875 224.497070312 c 0
 803.430664062 224.497070312 913.90625 190.182617188 1065 139 c 1
 1008 0 l 1
 878.672851562 39.6259765625 808.0625 95.4716796875 650.025390625 95.4716796875 c 0
 557.313476562 95.4716796875 430.465820312 62.95703125 231.5 -30 c 1
 116 60 l 17
 208.052472386 249.435546875 223.16015625 470.73046875 223.16015625 595.596679688 c 0
 220.8125 694.599609375 l 9
 66 694.599609375 l 1
 66 807.599609375 l 1
 227.07421875 807.599609375 l 1
EndSplineSet
EndChar

StartChar: section
Encoding: 167 167 306
Width: 976
VWidth: 0
Flags: HW
LayerCount: 2
Fore
SplineSet
122 761 m 0
 122 946 293 1044 512 1044 c 0
 689 1044 796 998 880 851 c 1
 880 851 778 788 778 787 c 1
 716 902 652 937 520 937 c 0
 350 937 251 873 251 747 c 0
 251 632 386 607 533 580 c 0
 755 539 889 455 889 272 c 0
 889 76 748.385 -24 477 -24 c 0
 313 -24 117 45 79 269 c 1
 184 310 l 1
 228 155 313 83 490 83 c 0
 632 83 761 129 761 268 c 0
 761 393.072 688 422 440 474 c 0
 271 510 122 559.878 122 761 c 0
EndSplineSet
EndChar

StartChar: uni00B5
Encoding: 181 181 307
Width: 1122
VWidth: 0
Flags: HW
LayerCount: 2
Fore
SplineSet
828 436 m 2
 828 1023 l 1
 970 1023 l 1
 970 0 l 1
 833 0 l 1
 829 159 l 1
 741 21 604 -24 467 -24 c 0
 152 -24 121 235 121 436 c 2
 121 1023 l 1
 268 1023 l 1
 268 406 l 2
 268 209 321 87 492 87 c 0
 755 87 828 331 828 436 c 2
EndSplineSet
EndChar
